<svg width="16" height="16" viewBox="0 0 16 16" xmlns="http://www.w3.org/2000/svg" fill="currentColor"><path d="M14.6771 9.17865C14.8883 9.08313 15.0877 8.88566 15.2155 8.46671C15.2406 8.38274 15.1983 8.29376 15.1174 8.26075C15.0428 8.23069 14.963 8.20121 14.8806 8.17077L14.8503 8.15956L14.8468 8.15826C14.61 8.07106 14.3517 7.97594 14.1622 7.85026C14.3985 7.76917 14.6026 7.71535 14.8288 7.65578L14.8781 7.64266C15.0083 7.60802 15.144 7.5719 15.2971 7.52733C15.3852 7.50149 15.4367 7.40964 15.4124 7.32065C15.204 6.55996 14.7923 6.03609 14.0118 5.55815C14.2209 5.38161 14.4894 5.12327 14.5983 4.92233C14.6298 4.86348 14.6241 4.79244 14.584 4.73933C14.2539 4.30373 13.0223 2.98831 10.7381 3.79852C10.741 3.34713 10.7252 2.83905 10.6536 2.57496C10.5419 2.16304 10.2949 1.83867 9.97628 1.6851C9.94119 1.66787 9.90038 1.66357 9.86243 1.67361C9.16931 1.848 7.98284 2.28217 7.39212 2.78092C7.08852 2.11209 6.2479 1.4002 5.63354 1.21146C5.58198 1.19567 5.52613 1.205 5.48317 1.23729C5.44021 1.26959 5.41586 1.32054 5.41586 1.37436C5.42015 1.81058 5.19332 2.12812 4.93045 2.4961L4.92896 2.49817C4.83749 2.62617 4.74237 2.75927 4.65394 2.9022L14.6771 9.17865Z"/><path d="M1.55 13.1521C1.76195 13.3086 2.34193 13.6781 3.08303 13.6781L3.08375 13.6774C3.44391 13.6774 3.84202 13.5906 4.25446 13.3495C4.32678 13.3071 4.35685 13.2196 4.32678 13.1421C3.20878 10.2623 4.12278 8.85164 5.46319 7.71403L12.3051 11.9984C12.2147 12.4104 12.0666 12.8312 11.843 13.249C11.8179 13.2956 11.8158 13.3523 11.8387 13.4004C11.8616 13.4492 11.9053 13.4837 11.9575 13.4944C12.7242 13.6518 13.3211 13.709 13.9828 13.0127C14.2894 13.0972 14.6276 12.9758 14.805 12.6924C14.9484 12.4633 14.9508 12.1859 14.8356 11.9619C14.8378 11.9603 14.84 11.9588 14.8423 11.9572L14.8286 11.9487C14.7699 11.84 14.6831 11.7447 14.571 11.6744L2.22075 3.94075C1.87503 3.72427 1.41928 3.82903 1.20279 4.17475C0.986303 4.52046 1.09107 4.97622 1.43678 5.19271L1.89994 5.48273C1.08033 6.08862 0.47959 6.8648 0.258995 7.62206C0.243959 7.67301 0.253982 7.72898 0.286204 7.77132C0.318425 7.81438 0.372129 7.83806 0.422251 7.83806L1.4247 7.82586C1.30727 7.98589 1.19485 8.18253 1.07957 8.38562C0.926338 8.65544 0.766662 8.9346 0.638492 9.02933C0.59911 9.05804 0.574765 9.10325 0.570469 9.15204C0.566173 9.20084 0.584074 9.24892 0.618443 9.28409C0.876866 9.54667 1.34952 9.60199 1.72968 9.64649C1.75251 9.64934 1.7778 9.65224 1.80276 9.6551C1.31228 9.83882 1.07384 9.97875 0.873351 10.0964C0.665701 10.2184 0.50173 10.3146 0.120801 10.4273C0.0713942 10.4416 0.0312961 10.4782 0.0119632 10.527C-0.00736971 10.5758 -0.00307325 10.6304 0.02342 10.6749C0.838982 12.0577 1.5142 12.2536 2.32475 12.2515C2.23167 12.4058 2.01542 12.5594 1.5543 12.8773C1.50919 12.9081 1.48198 12.9591 1.48126 13.0136C1.48055 13.0682 1.50633 13.1198 1.55 13.1521Z"/><path d="M5.50547 13.8224C5.61431 13.9063 5.74821 13.9394 5.9043 13.9394L5.90359 13.9408C6.13881 13.9408 6.42443 13.8661 6.75194 13.7805L6.7624 13.7778C7.16833 13.6712 7.62575 13.5512 8.08176 13.5583C8.5257 13.5655 8.98683 13.6688 9.39353 13.7607L9.39601 13.7612C9.995 13.8959 10.5124 14.0122 10.8034 13.7786C10.9516 13.6595 11.0232 13.4686 11.0232 13.2009C11.0332 13.0165 10.9523 12.8313 10.807 12.705C10.5578 12.4883 9.87757 11.9616 8.95317 11.7398C8.90663 11.7283 8.85794 11.7477 8.83145 11.7879C8.70471 11.9817 8.44622 12.1065 8.14835 12.1065C7.85048 12.1065 7.57839 11.9745 7.45523 11.7714C7.43017 11.7298 7.38076 11.7082 7.3335 11.719C6.72774 11.8503 6.13272 12.1417 5.56419 12.5845C5.38017 12.728 5.27133 12.9476 5.27205 13.1715C5.27205 13.488 5.34794 13.7004 5.50547 13.8224Z"/></svg>