<svg width="16" height="16" viewBox="0 0 16 16" xmlns="http://www.w3.org/2000/svg" fill="currentColor"><g clip-path="url(#clip0_6791_29624)"><path d="M14.6864 1.86046C15.4832 0.992248 15.8817 0.468217 15.8817 0.288372C15.8817 0.195349 15.8343 0.127131 15.7396 0.0837204C15.6607 0.046511 15.432 0.0279066 15.0533 0.0279066L14.4024 0.00930221H12.9349L12.8047 0C12.5049 0 12.3077 0.037209 12.213 0.111628C12.1183 0.186046 12.071 0.313178 12.071 0.493023C12.071 0.666666 12.1736 0.753488 12.3787 0.753488C12.4497 0.753488 12.6193 0.725581 12.8876 0.669767C13.1637 0.613953 13.4241 0.586046 13.6686 0.586046C14.1736 0.586046 14.426 0.626356 14.426 0.706976C14.426 0.781395 14.0237 1.26202 13.2189 2.14884C12.4063 3.02946 12 3.54729 12 3.70233V3.78605C12 3.88527 12.0907 3.95039 12.2722 3.9814C12.3116 3.9876 12.4615 3.9938 12.7219 4H15.0296C15.6765 4 16 3.86667 16 3.6V3.50698C16 3.30853 15.9053 3.2093 15.716 3.2093L15.0414 3.35814C14.7968 3.41395 14.4773 3.44186 14.0828 3.44186C13.6884 3.44186 13.4911 3.39225 13.4911 3.29302C13.4911 3.2186 13.8895 2.74109 14.6864 1.86046Z"/><path d="M6.3432 10.9302C6.74162 10.4961 6.94083 10.2341 6.94083 10.1442C6.94083 10.0977 6.91716 10.0636 6.86982 10.0419C6.83037 10.0233 6.71598 10.014 6.52663 10.014L6.20118 10.0047H5.46746L5.40237 10C5.25247 10 5.15385 10.0186 5.10651 10.0558C5.05917 10.093 5.0355 10.1566 5.0355 10.2465C5.0355 10.3333 5.08678 10.3767 5.18935 10.3767C5.22485 10.3767 5.30966 10.3628 5.44379 10.3349C5.58185 10.307 5.71203 10.293 5.83432 10.293C6.08678 10.293 6.21302 10.3132 6.21302 10.3535C6.21302 10.3907 6.01183 10.631 5.60947 11.0744C5.20316 11.5147 5 11.7736 5 11.8512V11.893C5 11.9426 5.04536 11.9752 5.13609 11.9907C5.15582 11.9938 5.23077 11.9969 5.36095 12H6.51479C6.83826 12 7 11.9333 7 11.8V11.7535C7 11.6543 6.95266 11.6047 6.85799 11.6047L6.52071 11.6791C6.39842 11.707 6.23866 11.7209 6.04142 11.7209C5.84418 11.7209 5.74556 11.6961 5.74556 11.6465C5.74556 11.6093 5.94477 11.3705 6.3432 10.9302Z"/><path d="M10.8817 3.28837C10.8817 3.46822 10.4832 3.99225 9.68639 4.86047C8.88955 5.74109 8.49112 6.2186 8.49112 6.29302C8.49112 6.39225 8.68836 6.44186 9.08284 6.44186C9.47732 6.44186 9.79684 6.41395 10.0414 6.35814L10.716 6.2093C10.9053 6.2093 11 6.30853 11 6.50698V6.6C11 6.86667 10.6765 7 10.0296 7H7.72189C7.46154 6.9938 7.31164 6.9876 7.27219 6.98139C7.09073 6.95039 7 6.88527 7 6.78605V6.70233C7 6.54729 7.40631 6.02946 8.21894 5.14884C9.02367 4.26202 9.42604 3.78139 9.42604 3.70698C9.42604 3.62636 9.17357 3.58605 8.66864 3.58605C8.42406 3.58605 8.16371 3.61395 7.88757 3.66977C7.61933 3.72558 7.4497 3.75349 7.3787 3.75349C7.17357 3.75349 7.07101 3.66667 7.07101 3.49302C7.07101 3.31318 7.11834 3.18605 7.21302 3.11163C7.30769 3.03721 7.50493 3 7.80473 3L7.93491 3.0093H9.40237L10.0533 3.02791C10.432 3.02791 10.6607 3.04651 10.7396 3.08372C10.8343 3.12713 10.8817 3.19535 10.8817 3.28837Z"/><path d="M10.6866 5.61347H10.8093C11.1266 5.61347 11.4941 5.71359 11.7469 5.99651C11.9635 6.23895 12 6.5131 12 6.69676V6.8015C12 7.00038 11.9415 7.20902 11.797 7.39987C11.6547 7.58773 11.461 7.71637 11.2669 7.80184C10.9048 7.9612 10.4755 8 10.0856 8H7.63891L7.62541 7.99966C7.48557 7.9961 7.36986 7.99241 7.28114 7.98849L7.2758 7.98826C7.21602 7.98563 7.09832 7.98045 7.00346 7.96452L6.99618 7.9633L6.98892 7.96198C6.81222 7.92973 6.57063 7.86208 6.36206 7.70223C6.12359 7.51947 6 7.2705 6 7.01097V6.91671C6 6.68701 6.1144 6.48039 6.16642 6.3884C6.23984 6.25855 6.33903 6.11222 6.45398 5.95577C6.68516 5.64114 7.02089 5.23077 7.4529 4.73076C7.71198 4.42585 7.45104 4.37264 7.10395 4.30187C6.85958 4.25204 6.57249 4.19349 6.39412 4.03226C6.12879 3.7924 6.07487 3.50311 6.07487 3.30324C6.07487 3.27354 6.07558 3.24233 6.07732 3.20991C5.92369 3.11996 5.7728 3.05029 5.63354 3.00751C5.58198 2.99172 5.52613 3.00105 5.48317 3.03335C5.44021 3.06564 5.41586 3.11659 5.41586 3.17041C5.42015 3.60663 5.19332 3.92417 4.93045 4.29215L4.92896 4.29422C4.62905 4.7139 4.29383 5.18297 4.26019 5.90674C3.47184 5.61897 2.15791 6.05529 1.60657 6.57772C1.57005 6.61217 1.55143 6.66097 1.5543 6.7112C1.55716 6.76144 1.58222 6.80737 1.62304 6.83679C1.69249 6.88702 1.78128 6.93726 1.8758 6.99036C1.95241 7.0327 2.03834 7.08078 2.11137 7.12958C1.18411 7.75392 0.49815 8.59714 0.258995 9.41811C0.243959 9.46906 0.253982 9.52503 0.286204 9.56737C0.318425 9.61043 0.372129 9.63411 0.422251 9.63411L1.4247 9.62191C1.30727 9.78194 1.19485 9.97858 1.07957 10.1817C0.926338 10.4515 0.766662 10.7307 0.638492 10.8254C0.59911 10.8541 0.574765 10.8993 0.570469 10.9481C0.566173 10.9969 0.584074 11.045 0.618443 11.0801C0.876872 11.3427 1.34931 11.398 1.72948 11.4425C1.75212 11.4454 1.77771 11.4483 1.80247 11.4511C1.31281 11.6345 1.07464 11.7743 0.874363 11.8919L0.873351 11.8925C0.665701 12.0145 0.50173 12.1107 0.120801 12.2233C0.0713942 12.2377 0.0312961 12.2743 0.0119632 12.3231C-0.00736971 12.3719 -0.00307325 12.4264 0.02342 12.4709C0.838982 13.8538 1.5142 14.0497 2.32475 14.0475C2.23167 14.2018 2.01542 14.3554 1.5543 14.6733C1.50919 14.7042 1.48198 14.7551 1.48126 14.8097C1.48055 14.8642 1.50633 14.9159 1.55 14.9482C1.76195 15.1046 2.34193 15.4742 3.08303 15.4742L3.08375 15.4735C3.44391 15.4735 3.84202 15.3866 4.25446 15.1455C4.32678 15.1032 4.35685 15.0156 4.32678 14.9381C3.60445 13.0775 3.73035 11.8302 4.27144 10.8735L4.26275 10.8629C4.08586 10.643 4.04991 10.3779 4.04991 10.1946C4.04991 9.9477 4.08897 9.58707 4.32376 9.31607C4.46466 9.15345 4.63412 9.08237 4.75914 9.04774C4.88987 9.01153 5.02772 9 5.15983 9H5.18679L5.27829 9.0096H6.29363L6.75139 9.02881C6.88935 9.02907 7.01513 9.03411 7.12175 9.04684C7.1764 9.05337 7.23608 9.06306 7.29507 9.07877C7.34522 9.09212 7.43392 9.11958 7.5247 9.18151C7.77164 9.34906 7.89932 9.62805 7.91514 9.92097C8.05867 9.94726 8.18772 9.96231 8.2936 9.96351H8.29575C8.36091 9.96351 8.42034 9.92619 8.44827 9.86662C8.47619 9.80706 8.46688 9.73602 8.42392 9.68578C8.12319 9.33127 7.96924 8.86123 7.99645 8.39835C9.09842 8.69043 10.5183 9.4791 11.041 10.3374C11.0754 10.3934 11.1391 10.4242 11.2036 10.417C11.5107 10.3826 11.6862 10.2398 11.7943 10.0676C12.2232 10.89 12.9364 13.0027 11.843 15.045C11.8179 15.0917 11.8158 15.1484 11.8387 15.1965C11.8616 15.2453 11.9053 15.2797 11.9575 15.2905C12.7337 15.4498 13.3359 15.5065 14.0075 14.7824C14.0498 14.7365 14.0634 14.6704 14.0426 14.6109C14.0212 14.552 13.9696 14.509 13.9073 14.5004C13.8393 14.491 13.7147 14.364 13.6187 14.2241C14.6427 14.1179 15.6115 13.3213 15.991 12.237C16.0067 12.1903 16.0017 12.1386 15.9774 12.0963C15.9523 12.054 15.9108 12.0238 15.8621 12.0152L15.8023 12.0048C15.7713 11.9994 15.7401 11.9939 15.7088 11.9887C15.174 11.8975 14.6233 11.8028 14.1629 11.0701C14.5102 11.0543 14.9821 11.0278 15.2155 10.2628C15.2406 10.1788 15.1983 10.0898 15.1174 10.0568C15.0428 10.0267 14.963 9.99725 14.8806 9.96681L14.8503 9.95561L14.8468 9.95431C14.61 9.86712 14.3517 9.77197 14.1622 9.64631C14.3985 9.56522 14.6026 9.5114 14.8288 9.45184L14.8781 9.43871C15.0082 9.40409 15.1441 9.36792 15.2971 9.32338C15.3852 9.29754 15.4367 9.20569 15.4124 9.1167C15.204 8.35601 14.7923 7.83214 14.0118 7.3542C14.2209 7.17766 14.4894 6.91932 14.5983 6.71838C14.6298 6.65953 14.6241 6.58849 14.584 6.53538C13.2483 4.77283 10.2099 5.70131 10.6431 5.62257C10.657 5.62003 10.6715 5.61701 10.6866 5.61347Z"/><path d="M5.9043 15.7354C5.74821 15.7354 5.61431 15.7024 5.50547 15.6184C5.34794 15.4964 5.27205 15.284 5.27205 14.9675C5.27133 14.7436 5.38017 14.5241 5.56419 14.3805C6.13272 13.9377 6.72774 13.6464 7.3335 13.5151C7.38076 13.5043 7.43017 13.5258 7.45523 13.5675C7.57839 13.7705 7.85048 13.9026 8.14835 13.9026C8.44622 13.9026 8.70471 13.7777 8.83145 13.584C8.85794 13.5438 8.90663 13.5244 8.95317 13.5359C9.87757 13.7576 10.5578 14.2844 10.807 14.5011C10.9523 14.6274 11.0332 14.8125 11.0232 14.997C11.0232 15.2646 10.9516 15.4555 10.8034 15.5747C10.5124 15.8083 9.995 15.692 9.39601 15.5573L9.39353 15.5567C8.98683 15.4649 8.5257 15.3615 8.08176 15.3544C7.62575 15.3472 7.16833 15.4673 6.7624 15.5738L6.75194 15.5765C6.42443 15.6622 6.13881 15.7368 5.90359 15.7368L5.9043 15.7354Z"/></g><defs><clipPath id="clip0_6791_29624"><rect width="16" height="16"/></clipPath></defs></svg>