<svg width="16" height="16" viewBox="0 0 16 16" xmlns="http://www.w3.org/2000/svg" fill="currentColor"><path fill-rule="evenodd" clip-rule="evenodd" d="M1.84708 6.34369L1.85595 6.29842L2.77954 6.47952L2.77082 6.524C2.53985 7.7242 2.66943 8.96609 3.17996 10.0597C3.61253 10.9868 4.29816 11.857 5.39089 12.2273H5.47307V13.1684H5.24351L5.17441 13.1466C3.6948 12.6799 2.82844 11.5322 2.32713 10.4578M1.84708 6.34369L1.84677 6.34525ZM1.84677 6.34525C1.58091 7.72584 1.72656 9.17127 2.32713 10.4578Z"/><path fill-rule="evenodd" clip-rule="evenodd" d="M12.7321 10.2655C13.3256 9.11103 13.4811 7.7714 13.2209 6.48206L14.1435 6.29588C14.4425 7.77752 14.2679 9.33669 13.5691 10.6959C13.0547 11.6962 12.2086 12.7141 10.8383 13.1474L10.7691 13.1693H10.5598V12.2665L10.5546 12.25L10.5598 12.2484V12.2281H10.6214C11.6328 11.8846 12.2957 11.114 12.7321 10.2655Z"/><path d="M8.28313 2.89105H7.12484C6.20887 2.89105 5.33194 3.26383 4.69555 3.92329L2.31775 6.38897L0.83905 4.55081C0.296743 3.87625 0.359761 2.89992 0.983724 2.30081C1.64763 1.66353 2.71627 1.73898 3.28431 2.46324L4.55621 4.06353"/><path fill-rule="evenodd" clip-rule="evenodd" d="M1.30965 2.64026C1.77261 2.19592 2.51777 2.24843 2.91403 2.75366ZM3.65361 2.17156C2.91354 1.22946 1.52231 1.13152 0.657846 1.96132C-0.142036 2.72934 -0.222826 3.98104 0.472289 4.84566L2.28579 7.10003L5.03418 4.25007C5.582 3.68239 6.33674 3.36164 7.12484 3.36164H8.28313V2.42046H7.12484C6.19392 2.42046 5.2986 2.75832 4.60156 3.36427L3.65361 2.17156ZM2.91403 2.75366L3.93316 4.03594ZM3.93316 4.03594L2.3497 5.67792L1.20581 4.25595V4.25595C0.816421 3.77149 0.861686 3.07043 1.30965 2.64026"/><path d="M7.71685 2.89105H8.87514C9.79111 2.89105 10.668 3.26383 11.3044 3.92329L11.4864 4.11235L13.6822 6.38897L15.1609 4.55081C15.7032 3.87714 15.6402 2.89992 15.0163 2.3017C14.3524 1.66442 13.2837 1.73986 12.7157 2.46412L11.2095 4.12655"/><path fill-rule="evenodd" clip-rule="evenodd" d="M12.3564 2.15975C13.099 1.22948 14.4816 1.13615 15.3421 1.9622C16.1421 2.72939 16.2228 3.98205 15.5276 4.84577V4.84577L13.7142 7.09999L10.9658 4.25007C10.418 3.68239 9.66323 3.36163 8.87514 3.36163H7.71685V2.42046H8.87514C9.77281 2.42046 10.6374 2.73461 11.323 3.30037L12.3564 2.15975ZM11.9943 3.96113L13.0756 2.7677L13.086 2.75454C13.4822 2.2493 14.2274 2.1968 14.6904 2.64119C15.1381 3.07043 15.1836 3.77218 14.7944 4.25571L13.6503 5.67795L11.9943 3.96113Z"/><path fill-rule="evenodd" clip-rule="evenodd" d="M6.72876 8.49185L5.9777 12.6005C5.93784 12.818 6.02214 13.024 6.36087 13.3223C7.39968 13.7756 8.58179 13.7753 9.62197 13.3197C9.82488 13.1464 9.94429 13.0044 10.0089 12.8783C10.0703 12.7583 10.0927 12.6332 10.0578 12.4617V12.4617L9.24906 8.49592C9.11862 7.90532 8.59469 7.48441 7.98845 7.48441C7.38415 7.48441 6.86168 7.90287 6.72876 8.49185ZM5.80781 8.29753C6.03266 7.27329 6.93911 6.54323 7.98845 6.54323C9.03742 6.54323 9.9453 7.27299 10.1692 8.29801L10.1706 8.30439L10.98 12.2736C11.056 12.647 11.0088 12.9907 10.8466 13.3073C10.6923 13.6084 10.4475 13.8592 10.1742 14.0849L10.1258 14.1249L10.018 14.1737C8.70848 14.7536 7.21368 14.7458 5.91079 14.1521L5.85153 14.1251L5.80183 14.083C5.35969 13.7087 4.91443 13.1816 5.05187 12.4313L5.80602 8.30564L5.80781 8.29753Z"/><path d="M11.6231 9.0295C12.0373 9.0295 12.3731 8.69372 12.3731 8.2795C12.3731 7.86529 12.0373 7.5295 11.6231 7.5295C11.2089 7.5295 10.8731 7.86529 10.8731 8.2795C10.8731 8.69372 11.2089 9.0295 11.6231 9.0295Z"/><path fill-rule="evenodd" clip-rule="evenodd" d="M11.6231 7.71774C11.3129 7.71774 11.0614 7.96925 11.0614 8.2795C11.0614 8.58976 11.3129 8.84127 11.6231 8.84127C11.9334 8.84127 12.1849 8.58976 12.1849 8.2795C12.1849 7.96925 11.9334 7.71774 11.6231 7.71774ZM10.6849 8.2795C10.6849 7.76133 11.105 7.34127 11.6231 7.34127C12.1413 7.34127 12.5614 7.76133 12.5614 8.2795C12.5614 8.79768 12.1413 9.21774 11.6231 9.21774C11.105 9.21774 10.6849 8.79768 10.6849 8.2795Z"/><path d="M4.37685 9.0295C4.79106 9.0295 5.12685 8.69372 5.12685 8.2795C5.12685 7.86529 4.79106 7.5295 4.37685 7.5295C3.96264 7.5295 3.62685 7.86529 3.62685 8.2795C3.62685 8.69372 3.96264 9.0295 4.37685 9.0295Z"/><path fill-rule="evenodd" clip-rule="evenodd" d="M4.37685 7.71774C4.06659 7.71774 3.81508 7.96925 3.81508 8.2795C3.81508 8.58976 4.0666 8.84127 4.37685 8.84127C4.6871 8.84127 4.93861 8.58976 4.93861 8.2795C4.93861 7.96925 4.6871 7.71774 4.37685 7.71774ZM3.43861 8.2795C3.43861 7.76133 3.85868 7.34127 4.37685 7.34127C4.89502 7.34127 5.31508 7.76133 5.31508 8.2795C5.31508 8.79768 4.89502 9.21774 4.37685 9.21774C3.85868 9.21774 3.43861 8.79768 3.43861 8.2795Z"/><path d="M7.81202 10.8428L6.95196 9.98275C6.78421 9.815 6.90315 9.5292 7.14013 9.5292H8.86024C9.09723 9.5292 9.21527 9.81589 9.04841 9.98275L8.18835 10.8428C8.08451 10.9467 7.91587 10.9467 7.81202 10.8428Z"/><path fill-rule="evenodd" clip-rule="evenodd" d="M7.14013 9.71744C7.0702 9.71744 7.03635 9.80094 7.08506 9.84965L7.94512 10.7097C7.97546 10.74 8.02491 10.74 8.05525 10.7097L8.91531 9.84965C8.9638 9.80115 8.92922 9.71744 8.86024 9.71744H7.14013ZM6.81886 10.1159C6.53207 9.82907 6.73609 9.34097 7.14013 9.34097H8.86024C9.26523 9.34097 9.46674 9.83063 9.18151 10.1159L8.32145 10.9759C8.1441 11.1533 7.85627 11.1533 7.67892 10.9759L6.81886 10.1159Z"/><path fill-rule="evenodd" clip-rule="evenodd" d="M6.79538 7.11678C6.79538 5.79207 5.78597 4.703 4.49545 4.57716L4.58678 3.64043C6.35484 3.81282 7.73655 5.30303 7.73655 7.11678H6.79538Z"/><path fill-rule="evenodd" clip-rule="evenodd" d="M8.27141 7.11678C8.27141 5.30897 9.64505 3.82196 11.4067 3.64241L11.5021 4.57873C10.2159 4.70983 9.21259 5.79679 9.21259 7.11678H8.27141Z"/></svg>