<svg viewBox="0 0 32 32" xmlns="http://www.w3.org/2000/svg" fill="currentColor"><path fill-rule="evenodd" clip-rule="evenodd" d="M10.3 27H10.5C10.8 26.8 11.1 26.6 11.4 26.8C11.5 26.7 11.65 26.625 11.8 26.55C11.95 26.475 12.1 26.4 12.2 26.3H12.3C13.6 26.9 15.1 27.1 16.5 27C17.7 27 18.9 26.8 20 26.2C20.1 26.1 20.2 26.1 20.3 26.2C20.4291 26.2646 20.5166 26.3709 20.6162 26.4919C20.6708 26.5583 20.7291 26.6292 20.8 26.7L21.2 27.1C21.4 27.2 21.6 27.3 21.8 27.1C22.1 26.9 22.2 26.7 22.1 26.4C21.9 26 21.6 25.7 21.3 25.5C21.2 25.4 21.2 25.3 21.3 25.2C22 24.4 22.4 23.4 22.6 22.4C22.8 21.3 22.8 20.3 22.8 19.2V19.2C22.8 18.8365 22.773 18.5 22.7471 18.1765C22.7231 17.8769 22.7 17.5885 22.7 17.3V17.2C22.75 17.2 22.8 17.225 22.85 17.25C22.9 17.275 22.95 17.3 23 17.3C23.1 17.4 23.3 17.5 23.5 17.5C23.7 17.5 23.9 17.4 23.9 17.2V17.1C24.1 16.8 24.1 16.7 23.9 16.5C23.6 16.2 23.3 16 22.9 16C22.7 15.9 22.7 15.9 22.7 15.7C22.6 14.5 22.6 13.4 22.6 12.2C22.6 11.1 22.5 10.1 22.2 9.10001C22.2 9.00001 22.2 9.00001 22.3 8.90001C23.2 8.50001 23.5 7.80001 23.1 7.00001C22.7 6.20001 21.8 5.90001 21 6.30001C20.8 6.40001 20.6 6.40001 20.4 6.20001C19.7 5.60001 18.8 5.30001 17.9 5.20001C16.2 4.90001 14.4 5.00001 12.7 5.60001C12.1 5.80001 11.6 6.10001 11.1 6.50001C11 6.60001 10.9 6.60001 10.8 6.50001C9.8 6.00001 8.6 6.50001 8.4 7.60001C8.3 8.10001 8.6 8.70001 9.1 9.00001C9.5 9.10001 9.5 9.10001 9.4 9.60001C9.2 10.6 9.2 11.7 9.3 12.7C9.3 13.7 9.4 14.7 9.5 15.7C9.5 15.8 9.5 15.9 9.3 15.9C8.9 15.9 8.6 16 8.3 16.2C8.2 16.3 8 16.5 8 16.7C8 16.9 8.1 17.1 8.3 17.3H8.5C8.9 17.2 9.2 17 9.5 16.8C9.5 17.4 9.45 17.975 9.4 18.55C9.35 19.125 9.3 19.7 9.3 20.3C9.3 21.1 9.3 21.9 9.5 22.6C9.7 23.6 10.1 24.4 10.9 25.1C10.8349 25.1434 10.7651 25.1868 10.6936 25.2312C10.4358 25.3915 10.1566 25.5651 10 25.8C9.7 26.1 9.7 26.4 9.9 26.6C9.96972 26.7395 10.0881 26.8303 10.1872 26.9064C10.2303 26.9395 10.2697 26.9697 10.3 27ZM19 9.90001C18.8 10 18.5 10 18.3 10C17.2 10 16.4 9.40001 16.2 8.40001C16.1 7.80001 16.3 7.30001 16.7 6.90001C17.3 6.30001 18.4 6.00001 19.2 6.30001C19.9 6.60001 20.4 7.30001 20.4 8.20001C20.3 9.00001 19.8 9.60001 19 9.90001ZM12.6 6.40001H13.1C15 6.40001 15.5 8.00001 15 9.10001C14.6 9.80001 14 10.1 13.3 10.2C12.3 10.3 11.4 9.80001 11.1 8.90001C10.7 7.70001 11.4 6.60001 12.6 6.40001ZM15.3 9.50001C15.5 9.40001 15.7 9.40001 15.9 9.40001C16.1 9.40001 16.3 9.40001 16.4 9.50001C16.7 9.60001 16.8 9.80001 16.7 10.1C16.7 10.2 16.7 10.3 16.8 10.3C17 10.4 17.2 10.5 17.3 10.7C17.5 10.9 17.5 11.1 17.4 11.3C17.3 11.5 17.1 11.6 16.8 11.5C16.75 11.45 16.675 11.425 16.6 11.4C16.525 11.375 16.45 11.35 16.4 11.3C16.1 11.2 15.8 11.2 15.5 11.3C15.3 11.4 15.1 11.5 14.9 11.5C14.6 11.5 14.3 11.3 14.4 10.9C14.4 10.6 14.6 10.4 14.8 10.3C14.8 10.3 14.9 10.3 14.9 10.2C14.8064 9.82562 14.9756 9.71405 15.2436 9.53731C15.262 9.52521 15.2808 9.51282 15.3 9.50001ZM16.7 11.6V12.1V12.3C16.7 12.5 16.6 12.7 16.4 12.7C16.2 12.8 16 12.6 16 12.4C15.9322 12.1287 15.9563 11.9035 15.9789 11.693C15.9896 11.5931 16 11.4966 16 11.4C16 11.35 16 11.325 16.0125 11.3125C16.025 11.3 16.05 11.3 16.1 11.3C16.1562 11.3562 16.2438 11.3808 16.3454 11.4093C16.4246 11.4315 16.5123 11.4562 16.6 11.5C16.7 11.5 16.7 11.5 16.7 11.6ZM15.8 11.5V11.9C15.8 11.9333 15.7889 11.9667 15.7778 12C15.7556 12.0667 15.7333 12.1333 15.8 12.2C15.8 12.4 15.7 12.5 15.6 12.6C15.4 12.8 15.2 12.7 15.1 12.5C15 12.2 15 12 15 11.7C15 11.7 15 11.6 15.1 11.6C15.2 11.55 15.3 11.525 15.4 11.5C15.5 11.475 15.6 11.45 15.7 11.4C15.8 11.4 15.8 11.4 15.8 11.5ZM17.5648 8.25469C17.6648 8.25469 17.6648 8.35469 17.6648 8.45469C17.5648 8.55469 17.5648 8.65469 17.5648 8.65469C17.4648 8.65469 17.4648 8.55469 17.4648 8.45469C17.4648 8.35469 17.4648 8.25469 17.5648 8.25469ZM17.1648 7.55469C16.8648 7.55469 16.5648 7.85469 16.5648 8.25469C16.5648 8.65469 16.8648 8.95469 17.1648 8.95469C17.4648 8.95469 17.7648 8.65469 17.7648 8.25469C17.7648 7.85469 17.4648 7.55469 17.1648 7.55469ZM12.0648 9.15469C12.3648 9.15469 12.6648 8.85469 12.6648 8.45469C12.6648 8.05469 12.3648 7.75469 12.0648 7.75469C11.7648 7.75469 11.4648 8.05469 11.4648 8.45469C11.4648 8.85469 11.7648 9.15469 12.0648 9.15469ZM12.4648 8.65469C12.4648 8.65469 12.4648 8.75469 12.3648 8.75469C12.2648 8.75469 12.1648 8.65469 12.2648 8.55469C12.2648 8.55469 12.2648 8.45469 12.3648 8.45469C12.4648 8.45469 12.4648 8.55469 12.4648 8.65469ZM15.3648 10.4547C15.4648 10.5547 15.6648 10.5547 15.7648 10.5547C16.0648 10.5547 16.2648 10.4547 16.3648 10.3547C16.6648 10.2547 16.6648 9.95469 16.4648 9.75469C16.3648 9.65469 16.2648 9.55469 16.0648 9.55469C15.7648 9.45469 15.4648 9.55469 15.1648 9.75469C14.9648 10.0547 14.9648 10.3547 15.3648 10.4547Z"/></svg>