<svg viewBox="0 0 226 226" xmlns="http://www.w3.org/2000/svg" fill="currentColor"><path fill-rule="evenodd" clip-rule="evenodd" d="M138.706 96.0671C135.201 96.9573 132.315 97.7237 129.377 98.504C127.033 99.1262 124.657 99.7573 121.906 100.467L121.741 100.511C120.397 100.872 120.257 100.91 119.006 99.4671C117.506 97.7671 116.406 96.6671 114.306 95.6671C108.006 92.5671 101.906 93.4671 96.2061 97.1671C89.4061 101.567 85.9061 108.067 86.0061 116.167C86.1061 124.167 91.6061 130.767 99.5061 131.867C106.306 132.767 112.006 130.367 116.506 125.267C117.174 124.451 117.786 123.58 118.466 122.614C118.703 122.277 118.948 121.929 119.206 121.567H99.9061C97.8061 121.567 97.3061 120.267 98.0061 118.567C99.3061 115.467 101.706 110.267 103.106 107.667C103.406 107.067 104.106 106.067 105.606 106.067H137.788C139.233 101.488 141.578 97.1612 144.706 93.0672C152.006 83.4672 160.806 78.4672 172.706 76.3672C182.906 74.5672 192.506 75.5671 201.206 81.4671C209.106 86.8671 214.006 94.1672 215.306 103.767C217.006 117.267 213.106 128.267 203.806 137.667C197.206 144.367 189.106 148.567 179.806 150.467C178.032 150.796 176.258 150.952 174.512 151.105C173.601 151.185 172.698 151.264 171.806 151.367C162.706 151.167 154.406 148.567 147.406 142.567C142.483 138.311 139.092 133.081 137.406 126.992C136.237 129.354 134.838 131.615 133.206 133.767C126.006 143.267 116.606 149.167 104.706 150.767C94.9061 152.067 85.8061 150.167 77.8061 144.167C70.4061 138.567 66.2061 131.167 65.1061 121.967C63.8061 111.067 67.0061 101.267 73.6061 92.6671C80.7061 83.3671 90.1061 77.4671 101.606 75.3671C111.006 73.6671 120.006 74.7671 128.106 80.2671C133.406 83.7671 137.206 88.5671 139.706 94.3671C140.306 95.2671 139.906 95.7671 138.706 96.0671ZM195.606 110.967C195.577 110.588 195.556 110.234 195.537 109.898C195.489 109.083 195.448 108.375 195.306 107.667C193.506 97.7672 184.406 92.1672 174.906 94.3672C165.606 96.4672 159.606 102.367 157.406 111.767C155.606 119.567 159.406 127.467 166.606 130.667C172.106 133.067 177.606 132.767 182.906 130.067C190.806 125.967 195.106 119.567 195.606 110.967ZM25.506 97.3671C25.306 97.6671 25.406 97.8671 25.806 97.8671L62.006 97.9671C62.306 97.9671 62.806 97.6671 63.006 97.3671L64.706 94.7671C64.906 94.4671 64.806 94.1671 64.406 94.1671H28.706C28.306 94.1671 27.806 94.3671 27.606 94.6671L25.506 97.3671ZM10.406 106.567C10.206 106.867 10.306 107.067 10.706 107.067L58.006 106.967C58.406 106.967 58.806 106.767 58.906 106.367L59.706 103.967C59.806 103.667 59.606 103.367 59.206 103.367H13.606C13.206 103.367 12.706 103.567 12.506 103.867L10.406 106.567ZM34.606 115.667C34.406 115.967 34.506 116.267 34.906 116.267L56.706 116.367C57.006 116.367 57.406 116.067 57.406 115.667L57.606 113.267C57.606 112.867 57.406 112.567 57.006 112.567H37.006C36.606 112.567 36.206 112.867 36.006 113.167L34.606 115.667Z"/></svg>