<svg viewBox="0 0 33 33" xmlns="http://www.w3.org/2000/svg" fill="currentColor"><path d="M23 16.9C23.4 16.7 23.9 16.5 24.3 16.2C25.2 15.6 25.2 14.5 24.3 14.1C24.1 14 24 13.8 23.9 13.5C23.8 12.9 23.9 12.4 24.2 11.9C24.9 10.9 24.4 10.1 23.1 10H23L22.9 9.9C22.8 9.4 22.7 9 23.3 8.6C23.5 8.5 23.8 8.4 24.1 8.3C24.3 8.2 24.5 8.2 24.6 8.2C24.6 8.1 24.5 8.1 24.5 8.1C23.8 7.3 22.8 7.1 21.9 7.2C20.7 7.3 20 7.9 19.3 8.7C19.2 8.9 19 8.9 18.8 8.8C18.6 8.7 18.6 8.6 18.6 8.5C18.6 8.3 18.7 8.1 18.7 7.9L19 7.3C18.4 7.3 18 7.6 17.5 7.9C17.2 7.4 17.2 7 17.4 6.5C16.5 6.8 15.9 7.2 15.7 8.1C15.4 7.8 15.5 7.4 15.5 7H15.4C15.3 7 15.3 7.1 15.2 7.1C14.7 7.5 14.4 8 14.3 8.5C14.3 8.6 14.2 8.7 14.2 8.8C14.1 8.7 14 8.7 13.9 8.6C13.5 8.3 13.1 7.9 12.7 7.6C11.5 6.9 10.4 6.9 9.20002 7.5L8.40002 8.3C8.80002 8.5 9.20002 8.5 9.60002 8.7C10.3 8.9 10.5 9.3 10.2 10.1C10 10.1 9.80002 10.2 9.60002 10.2C8.90002 10.4 8.60002 10.9 8.70002 11.5C8.80002 11.8 9.00002 12.1 9.10002 12.4C9.10002 12.5 9.20002 12.6 9.20002 12.7V13.7C9.20002 13.9 9.00002 14.1 8.80002 14.3C8.60002 14.5 8.30002 14.7 8.20002 15C7.90002 15.5 8.20002 16.1 8.70002 16.5C9.10002 16.8 9.50002 17 10 17.2C10.6 17.5 10.8 17.9 10.8 18.4C10.8 19 10.8 19.5 10.7 20.1C10.7 20.3 10.6 20.6 10.6 20.9C10 20.4 9.60002 19.9 9.50002 19.2C8.90002 19.7 8.60002 20.2 8.60002 20.8C8.40002 22.1 8.90002 23.4 10.5 24C10.6 24 10.7 24.1 10.8 24.2C11.4 25.2 12.3 25.8 13.5 26C13.6 26 13.7 26 13.7 26.1C14.8 26.8 15.9 26.9 17.1 26.8C17.8 26.7 18.4 26.6 18.9 26.2C19 26.1 19.2 26.1 19.3 26C20.5 25.8 21.3 25.2 21.9 24.3L22.2 24C22.8 23.8 23.3 23.5 23.6 23C24.1 22.3 24.2 21.4 24.1 20.7C24 20.1 23.7 19.7 23.2 19.2C23 19.9 22.7 20.4 22.1 20.9C22 20 22 19.1 22 18.3C22.2 17.5 22.5 17.1 23 16.9Z"/></svg>