<svg viewBox="0 0 32 32" xmlns="http://www.w3.org/2000/svg" fill="currentColor"><path d="M20.505 6.48102C20.627 6.48102 20.751 6.47602 20.873 6.48202L20.874 6.50902C20.7507 6.51001 20.6274 6.51001 20.504 6.50902V6.48002L20.505 6.48102Z"/><path d="M19.48 6.964C19.776 6.744 20.124 6.534 20.504 6.509H20.874C20.915 6.523 21.016 6.478 21.017 6.537C20.922 6.537 20.831 6.537 20.738 6.542C20.359 6.52 20.028 6.748 19.74 6.966L19.48 6.964Z"/><path d="M19.74 6.966C20.027 6.748 20.36 6.52 20.738 6.542C20.482 6.621 20.228 6.727 20.026 6.909C19.851 7.046 19.706 7.214 19.546 7.368C19.4982 7.35891 19.4489 7.36085 19.402 7.37367C19.355 7.3865 19.3116 7.40987 19.275 7.442C19.405 7.262 19.569 7.106 19.74 6.966Z"/><path d="M20.738 6.54199C20.831 6.53699 20.922 6.53699 21.017 6.53699C21.432 6.60999 21.777 6.90899 22.043 7.21999L22.019 7.28499C21.737 7.00199 21.393 6.75799 20.987 6.69499C20.918 6.67099 20.85 6.65799 20.788 6.69299C20.62 6.73299 20.456 6.79299 20.305 6.87899C20.184 6.94899 20.095 7.05899 19.986 7.14299C19.898 7.06099 19.982 6.98799 20.026 6.90899C20.227 6.72699 20.482 6.62099 20.738 6.54199Z"/><path d="M20.788 6.69301C20.85 6.65801 20.918 6.67101 20.988 6.69401C20.9572 6.71048 20.9228 6.71902 20.8878 6.71885C20.8529 6.71867 20.8186 6.70979 20.788 6.69301Z"/><path d="M19.546 7.368C19.706 7.214 19.851 7.046 20.026 6.909C19.982 6.988 19.898 7.061 19.986 7.143C19.669 7.543 19.426 8.007 19.189 8.462C19.153 8.53 19.145 8.625 19.082 8.672C19.09 8.624 19.102 8.577 19.11 8.529C19.0163 8.52691 18.9227 8.52624 18.829 8.527C18.829 8.513 18.832 8.487 18.833 8.473C18.958 8.266 19.076 8.054 19.201 7.847C19.306 7.68 19.441 7.535 19.546 7.368Z"/><path d="M18.7769 7.62301C19.0149 7.40701 19.2149 7.14701 19.4799 6.96301C19.5669 6.96301 19.6519 6.96601 19.7399 6.96601C19.5653 7.10427 19.4091 7.26423 19.2749 7.44201C19.1999 7.51901 19.1349 7.60401 19.0619 7.68401C18.9779 7.72901 18.9129 7.66001 18.8399 7.62701C18.8129 7.66101 18.7909 7.70401 18.7419 7.70701L18.7769 7.62301Z"/><path d="M22.043 7.21997C22.096 7.27997 22.147 7.34397 22.183 7.41697L22.165 7.44897C22.125 7.39197 22.031 7.34897 22.019 7.28497L22.043 7.21997Z"/><path d="M19.275 7.442C19.3116 7.40986 19.355 7.38649 19.402 7.37367C19.4489 7.36084 19.4982 7.3589 19.546 7.368C19.44 7.534 19.306 7.68 19.201 7.848C19.158 7.878 19.118 7.914 19.076 7.946C19.022 7.931 18.971 7.909 18.916 7.898L19.062 7.684C19.134 7.604 19.2 7.519 19.275 7.442Z"/><path d="M22.183 7.41699C22.2397 7.47233 22.2793 7.54279 22.297 7.61999C22.2383 7.57607 22.1927 7.51694 22.165 7.44899L22.183 7.41699Z"/><path d="M18.84 7.62701C18.913 7.66001 18.978 7.72901 19.062 7.68401L18.916 7.89801C18.7147 8.19051 18.5304 8.49435 18.364 8.80801C18.258 9.00601 18.159 9.20801 18.064 9.41101C17.929 9.41101 17.798 9.39301 17.665 9.38001C17.625 9.41801 17.593 9.46301 17.547 9.49301C17.8368 8.91528 18.186 8.36933 18.589 7.86401C18.635 7.80901 18.672 7.73301 18.742 7.70601C18.791 7.70401 18.813 7.66101 18.84 7.62701Z"/><path d="M19.076 7.94598C19.118 7.91398 19.158 7.87798 19.201 7.84698C19.076 8.05398 18.958 8.26598 18.833 8.47298C18.799 8.49598 18.768 8.52098 18.735 8.54298C18.69 8.53098 18.649 8.50698 18.603 8.49998C18.49 8.56598 18.499 8.77798 18.363 8.80798C18.53 8.49498 18.715 8.18998 18.916 7.89798C18.971 7.90898 19.022 7.93098 19.076 7.94598Z"/><path d="M18.735 8.54302C18.768 8.52102 18.799 8.49602 18.833 8.47302L18.829 8.52702C18.604 8.91702 18.445 9.34402 18.272 9.76002C18.173 10.05 18.032 10.328 17.975 10.63L17.945 10.71C17.818 10.808 17.824 11.018 17.715 11.141C17.552 11.155 17.598 10.934 17.465 10.906C17.492 10.813 17.525 10.721 17.549 10.626C17.718 10.221 17.879 9.81102 18.063 9.41102C18.159 9.20802 18.258 9.00602 18.363 8.80802C18.499 8.77802 18.49 8.56602 18.603 8.50002C18.649 8.50702 18.69 8.53102 18.735 8.54302Z"/><path d="M18.829 8.52698C18.923 8.52698 19.015 8.52698 19.109 8.52898C19.102 8.57698 19.09 8.62398 19.082 8.67098C18.7892 9.32615 18.5315 9.99643 18.31 10.679L18.29 10.677C18.185 10.666 18.078 10.66 17.975 10.631C18.032 10.328 18.173 10.05 18.272 9.75998C18.445 9.34398 18.604 8.91798 18.829 8.52698Z"/><path d="M17.547 9.493C17.593 9.463 17.626 9.418 17.665 9.38C17.798 9.393 17.929 9.41201 18.063 9.41101C17.879 9.81101 17.718 10.221 17.549 10.626C17.465 10.658 17.498 10.8 17.409 10.801C17.342 10.706 17.262 10.611 17.256 10.491C17.2 10.478 17.143 10.491 17.129 10.553C17.033 10.683 17.052 10.87 16.929 10.979C16.939 10.849 17.007 10.733 17.05 10.612C17.2 10.232 17.346 9.845 17.547 9.493Z"/><path d="M17.129 10.553C17.143 10.491 17.199 10.478 17.256 10.49C17.262 10.612 17.342 10.706 17.409 10.801C17.498 10.8 17.465 10.658 17.549 10.626C17.525 10.721 17.492 10.813 17.464 10.906C17.29 11.393 17.12 11.886 17.002 12.39C16.857 12.824 16.78 13.278 16.666 13.721C16.596 13.761 16.531 13.811 16.45 13.828C16.307 13.902 16.175 14.028 16.135 14.19C16.1262 14.1433 16.1269 14.0954 16.137 14.049C16.325 13.049 16.559 12.057 16.875 11.089L16.93 10.979C17.052 10.869 17.033 10.682 17.129 10.553Z"/><path d="M17.975 10.63C18.078 10.66 18.185 10.666 18.291 10.677C18.217 10.711 18.231 10.792 18.229 10.859C18.167 11.179 18.04 11.488 17.959 11.805C17.8484 12.22 17.7444 12.6367 17.647 13.055C17.625 13.085 17.657 13.167 17.604 13.161C17.51 13.161 17.418 13.153 17.326 13.138C17.2675 13.1954 17.2173 13.2607 17.177 13.332C17.268 12.858 17.42 12.397 17.547 11.932C17.663 11.519 17.813 11.117 17.945 10.709L17.975 10.63Z"/><path d="M18.23 10.86C18.231 10.792 18.217 10.71 18.29 10.677C18.275 10.734 18.286 10.833 18.23 10.86Z"/><path d="M17.714 11.141C17.824 11.018 17.818 10.808 17.945 10.709C17.813 11.117 17.663 11.519 17.546 11.931C17.484 11.995 17.442 12.074 17.396 12.149C17.3455 12.1609 17.2936 12.1653 17.242 12.162C17.195 12.114 17.269 12.014 17.158 12.056C17.122 12.174 17.094 12.301 17.002 12.39C17.12 11.885 17.29 11.393 17.464 10.906C17.598 10.934 17.552 11.155 17.714 11.141Z"/><path d="M17.396 12.149C17.442 12.074 17.484 11.995 17.546 11.931C17.42 12.397 17.268 12.858 17.177 13.332C17.122 13.476 17.111 13.632 17.063 13.779C16.954 13.95 16.945 14.162 16.858 14.343C16.768 14.363 16.658 14.373 16.591 14.447C16.56 14.55 16.541 14.657 16.502 14.758C16.5001 14.6871 16.5069 14.6163 16.522 14.547C16.542 14.267 16.657 14.002 16.666 13.721C16.78 13.278 16.856 12.824 17.002 12.39C17.094 12.3 17.122 12.174 17.158 12.056C17.269 12.014 17.195 12.114 17.242 12.162C17.2937 12.1653 17.3456 12.161 17.396 12.149Z"/><path d="M17.3259 13.138C17.4179 13.153 17.5099 13.16 17.6039 13.161C17.4999 13.825 17.3389 14.479 17.2609 15.147L17.2349 15.15C17.2249 15.006 17.2559 14.866 17.2829 14.727C17.1519 14.655 17.0339 14.784 16.9039 14.79C16.8699 14.817 16.8599 14.861 16.8409 14.899C16.8799 14.52 17.0059 14.155 17.0629 13.779C17.1109 13.633 17.1229 13.476 17.1769 13.332C17.2173 13.2607 17.2674 13.1954 17.3259 13.138Z"/><path d="M16.45 13.828C16.531 13.811 16.596 13.761 16.666 13.721C16.657 14.001 16.542 14.267 16.522 14.547C16.3741 14.5214 16.2229 14.5214 16.075 14.547C16.05 14.423 16.139 14.315 16.135 14.19C16.175 14.029 16.307 13.902 16.45 13.828Z"/><path d="M16.8579 14.343C16.9449 14.163 16.9539 13.95 17.0629 13.779C17.0059 14.155 16.8799 14.52 16.8409 14.899C16.8378 14.9471 16.8312 14.9949 16.8209 15.042L16.8089 14.949C16.7559 14.959 16.7979 15.042 16.7589 15.072C16.7089 15.165 16.5939 15.098 16.5089 15.102C16.4889 15.149 16.4689 15.195 16.4439 15.238L16.4399 15.036C16.4579 14.943 16.4689 14.847 16.5019 14.758C16.5409 14.657 16.5599 14.55 16.5919 14.447C16.6579 14.374 16.7689 14.363 16.8579 14.343Z"/><path d="M16.075 14.548C16.222 14.526 16.374 14.518 16.522 14.547C16.5068 14.6162 16.5001 14.6871 16.502 14.758C16.469 14.848 16.458 14.943 16.44 15.036C16.311 15.08 16.175 15.022 16.05 15.072C15.984 15.113 15.978 15.196 15.958 15.267C15.96 15.0224 15.9995 14.7796 16.075 14.547V14.548Z"/><path d="M16.9039 14.79C17.0339 14.784 17.1519 14.655 17.2829 14.727C17.2559 14.867 17.2239 15.006 17.2349 15.15C17.2249 15.35 17.1989 15.547 17.1729 15.745L17.1409 15.748C17.1505 15.7131 17.1506 15.6763 17.1412 15.6414C17.1319 15.6064 17.1135 15.5745 17.0879 15.549H16.7849C16.7419 15.618 16.7339 15.702 16.6949 15.774C16.6999 15.677 16.7239 15.581 16.7209 15.484C16.7589 15.337 16.7899 15.19 16.8209 15.042C16.8312 14.9949 16.8378 14.9471 16.8409 14.899C16.8609 14.861 16.8699 14.817 16.9039 14.789V14.79Z"/><path d="M16.76 15.072C16.798 15.042 16.756 14.96 16.81 14.949L16.821 15.042C16.7912 15.1898 16.7579 15.3368 16.721 15.483C16.681 15.547 16.659 15.618 16.631 15.686C16.568 15.674 16.508 15.646 16.445 15.634C16.407 15.687 16.385 15.749 16.36 15.809C16.359 15.742 16.363 15.676 16.366 15.609C16.398 15.489 16.383 15.351 16.444 15.239C16.4681 15.1948 16.4898 15.1494 16.509 15.103C16.594 15.098 16.71 15.165 16.76 15.072Z"/><path d="M16.05 15.072C16.175 15.022 16.311 15.08 16.44 15.036L16.444 15.238C16.384 15.351 16.398 15.488 16.366 15.609C16.264 15.706 16.116 15.617 15.992 15.617C15.944 15.686 15.916 15.765 15.882 15.84C15.8714 15.6459 15.8971 15.4516 15.958 15.267C15.978 15.197 15.984 15.113 16.051 15.072H16.05Z"/><path d="M19.198 15.207C19.282 15.167 19.355 15.081 19.456 15.092C18.503 16.113 18.041 17.487 17.799 18.838L17.775 18.832C17.6818 18.805 17.5859 18.7879 17.489 18.781C17.716 17.838 17.936 16.865 18.465 16.037C18.498 15.979 18.567 15.923 18.527 15.851C18.528 15.796 18.584 15.748 18.621 15.71C18.803 15.53 18.974 15.335 19.198 15.207Z"/><path d="M16.6309 15.686C16.6589 15.618 16.6809 15.546 16.7209 15.483C16.7239 15.581 16.7009 15.677 16.6959 15.774C16.6389 15.89 16.6159 16.018 16.5739 16.14C16.5099 16.129 16.4479 16.108 16.3849 16.094C16.3429 16.162 16.3319 16.244 16.3019 16.317L16.2939 16.283C16.307 16.1239 16.329 15.9656 16.3599 15.809C16.3849 15.749 16.4069 15.687 16.4449 15.634C16.5079 15.646 16.5679 15.674 16.6309 15.686Z"/><path d="M16.785 15.549H17.088C17.1136 15.5746 17.132 15.6064 17.1413 15.6414C17.1506 15.6763 17.1505 15.7131 17.141 15.748C17.1171 15.809 17.1106 15.8755 17.122 15.94C17.137 16.19 17.057 16.433 17.064 16.683H17.038C17.018 16.587 17.086 16.437 16.971 16.382C16.871 16.409 16.656 16.256 16.645 16.437L16.615 16.429L16.603 16.308C16.63 16.129 16.696 15.956 16.696 15.774C16.734 15.702 16.741 15.618 16.785 15.549Z"/><path d="M15.9921 15.617C16.1161 15.617 16.2641 15.706 16.3661 15.609C16.3631 15.676 16.3591 15.742 16.3601 15.809C16.3291 15.9656 16.3071 16.1239 16.2941 16.283C16.2741 16.34 16.2571 16.398 16.2341 16.453C16.0971 16.503 15.9041 16.315 15.8281 16.493C15.8231 16.5997 15.8029 16.7051 15.7681 16.806C15.7541 16.582 15.8011 16.356 15.8261 16.134C15.8341 16.034 15.8441 15.934 15.8811 15.84C15.9161 15.765 15.9451 15.686 15.9921 15.617Z"/><path d="M17.1219 15.94C17.1105 15.8755 17.1171 15.809 17.1409 15.748C17.1609 15.8 17.1869 15.92 17.1219 15.94Z"/><path d="M16.574 16.14C16.615 16.018 16.639 15.89 16.696 15.774C16.696 15.956 16.63 16.129 16.603 16.308C16.578 16.393 16.548 16.476 16.518 16.56C16.465 16.549 16.412 16.533 16.358 16.522C16.305 16.562 16.294 16.63 16.275 16.69C16.28 16.565 16.291 16.441 16.302 16.317C16.332 16.244 16.343 16.162 16.385 16.094C16.448 16.108 16.51 16.129 16.575 16.14H16.574Z"/><path d="M18.23 16.229C18.323 16.102 18.395 15.937 18.527 15.851C18.567 15.923 18.497 15.979 18.465 16.037C17.935 16.865 17.716 17.838 17.489 18.781C17.379 18.987 17.397 19.243 17.345 19.469C17.232 19.473 17.188 19.341 17.115 19.275C17.061 19.26 17.009 19.285 16.958 19.299C17.027 18.895 17.182 18.513 17.311 18.124C17.558 17.466 17.835 16.814 18.231 16.229H18.23Z"/><path d="M16.233 16.454C16.257 16.398 16.273 16.34 16.294 16.284L16.302 16.317C16.292 16.441 16.28 16.565 16.275 16.69C16.245 16.926 16.234 17.163 16.218 17.4C16.201 17.823 16.16 18.244 16.15 18.667C16.108 18.963 16.13 19.263 16.135 19.561C16.121 19.911 16.132 20.262 16.125 20.613L16.081 20.593C15.948 20.371 15.871 20.117 15.717 19.908C15.664 19.876 15.549 19.777 15.657 19.998C15.73 20.415 15.925 20.808 15.927 21.238C15.9126 21.1765 15.8976 21.1152 15.882 21.054C15.8128 20.7246 15.7165 20.4015 15.594 20.088C15.5716 20.0285 15.5506 19.9685 15.531 19.908C15.547 19.818 15.562 19.73 15.56 19.64C15.56 19.585 15.562 19.53 15.566 19.475C15.5845 19.3402 15.5915 19.204 15.587 19.068C15.5865 19.0043 15.5862 18.9407 15.586 18.877C15.574 18.697 15.608 18.518 15.624 18.34L15.651 18.102L15.657 18.075C15.6772 18.0114 15.683 17.9441 15.674 17.878L15.671 17.683C15.6703 17.4926 15.6928 17.3029 15.738 17.118C15.7508 17.0305 15.7582 16.9424 15.76 16.854L15.767 16.806C15.8032 16.7058 15.8234 16.6005 15.827 16.494C15.905 16.315 16.097 16.502 16.233 16.454Z"/><path d="M16.518 16.56C16.548 16.476 16.578 16.393 16.603 16.308L16.615 16.428C16.558 16.654 16.536 16.888 16.461 17.108C16.408 17.104 16.357 17.088 16.305 17.083C16.294 17.193 16.254 17.297 16.218 17.4C16.234 17.163 16.245 16.926 16.275 16.69C16.294 16.63 16.305 16.563 16.358 16.522C16.412 16.533 16.465 16.549 16.518 16.56Z"/><path d="M16.645 16.437C16.655 16.257 16.872 16.409 16.971 16.382C17.086 16.437 17.018 16.587 17.038 16.684C17.0405 16.92 17.0184 17.1556 16.972 17.387C16.958 17.461 16.953 17.539 16.945 17.615C16.9289 17.7112 16.9212 17.8085 16.922 17.906C16.922 17.982 16.922 18.057 16.924 18.133C16.927 18.207 16.924 18.28 16.917 18.353C16.904 18.428 16.896 18.506 16.887 18.582C16.8703 18.6979 16.8639 18.815 16.868 18.932L16.865 19.123L16.862 19.148C16.852 19.333 16.82 19.518 16.816 19.704C16.796 19.814 16.752 19.917 16.75 20.031C16.683 20.031 16.7 20.101 16.691 20.146C16.641 20.1913 16.5958 20.2416 16.556 20.296C16.588 19.964 16.524 19.632 16.521 19.299C16.438 18.606 16.503 17.911 16.521 17.217C16.545 16.955 16.595 16.696 16.645 16.437Z"/><path d="M16.615 16.429L16.645 16.437C16.595 16.696 16.545 16.955 16.521 17.217C16.4217 18.0117 16.4103 18.8149 16.487 19.612C16.427 20.024 16.295 20.424 16.212 20.832C16.209 20.872 16.158 20.879 16.132 20.898C16.129 20.801 16.129 20.708 16.125 20.613C16.132 20.263 16.121 19.911 16.135 19.561C16.175 19.265 16.153 18.965 16.15 18.667C16.16 18.244 16.2 17.823 16.218 17.4C16.254 17.297 16.294 17.193 16.305 17.083C16.357 17.088 16.408 17.103 16.461 17.107C16.536 16.887 16.558 16.654 16.615 16.429Z"/><path d="M10.7 16.54C10.747 16.554 10.741 16.633 10.746 16.677L10.728 16.854L10.7 16.855V16.54Z"/><path d="M10.7279 16.854L10.7459 16.677C10.8109 16.939 10.8529 17.207 10.9139 17.469C10.9247 17.5071 10.9261 17.5473 10.9179 17.586C10.8429 17.971 11.0759 18.39 10.8959 18.759C10.8679 18.741 10.8409 18.72 10.8139 18.699V18.617C10.8119 18.527 10.8239 18.437 10.7929 18.353C10.7888 18.279 10.7854 18.205 10.7829 18.131L10.7849 17.935C10.798 17.8683 10.7932 17.7993 10.7709 17.735C10.7572 17.6602 10.7521 17.584 10.7559 17.508C10.7539 17.391 10.7619 17.273 10.7389 17.158C10.7271 17.0571 10.7234 16.9555 10.7279 16.854Z"/><path d="M15.738 17.118C15.757 17.046 15.685 16.881 15.76 16.854C15.7582 16.9424 15.7509 17.0306 15.738 17.118Z"/><path d="M10.739 17.159C10.762 17.273 10.754 17.391 10.756 17.509H10.728C10.7209 17.3923 10.7242 17.2751 10.738 17.159H10.739Z"/><path d="M16.487 19.612C16.4103 18.8148 16.4217 18.0116 16.521 17.217C16.503 17.911 16.438 18.607 16.521 19.299C16.524 19.632 16.588 19.964 16.556 20.296C16.5959 20.2415 16.6411 20.1913 16.691 20.146L16.704 20.214C16.645 20.474 16.59 20.734 16.543 20.997C16.531 21.045 16.523 21.093 16.515 21.141L16.488 21.325L16.467 21.318C16.444 21.298 16.426 21.244 16.387 21.265C16.302 21.304 16.187 21.293 16.129 21.375C16.1292 21.268 16.1272 21.1609 16.123 21.054L16.131 20.898C16.158 20.878 16.209 20.873 16.212 20.832C16.295 20.424 16.426 20.024 16.487 19.612Z"/><path d="M16.9449 17.615C16.9529 17.539 16.9579 17.461 16.9719 17.387C16.9828 17.4652 16.9841 17.5445 16.9759 17.623L16.9449 17.615Z"/><path d="M12.537 17.637C12.452 17.717 12.215 17.44 12.517 17.565C12.884 17.54 13.249 17.601 13.595 17.715L13.605 17.739C13.529 17.818 13.455 17.897 13.373 17.969C13.098 17.851 12.84 17.679 12.537 17.637Z"/><path d="M10.896 18.759C11.076 18.39 10.843 17.971 10.918 17.586C10.987 17.825 11.019 18.084 11.068 18.331C10.991 18.26 10.938 18.412 10.987 18.474C11.031 18.738 10.989 19.001 10.979 19.265C10.961 19.305 10.944 19.347 10.922 19.386C10.852 19.352 10.838 19.275 10.82 19.207L10.813 19.129V18.872L10.814 18.7L10.896 18.759Z"/><path d="M16.922 17.906C16.9213 17.8089 16.929 17.7119 16.945 17.616C16.949 17.711 16.956 17.809 16.95 17.906H16.922Z"/><path d="M15.66 17.878C15.634 17.825 15.617 17.713 15.671 17.683L15.674 17.878H15.66Z"/><path d="M10.77 17.736C10.7924 17.7998 10.7976 17.8685 10.785 17.935H10.771C10.755 17.9041 10.7467 17.8698 10.7467 17.835C10.7467 17.8002 10.755 17.7659 10.771 17.735L10.77 17.736Z"/><path d="M13.605 17.74C13.7359 17.7655 13.8592 17.821 13.965 17.902C13.9375 17.9237 13.9108 17.9463 13.885 17.97C13.964 18.05 14.075 18.093 14.139 18.19C14.31 18.319 14.208 18.57 14.353 18.712C14.328 18.798 14.383 18.876 14.372 18.961C14.266 18.891 14.219 18.744 14.132 18.651C13.911 18.436 13.707 18.2 13.445 18.032C13.423 18.01 13.375 18.005 13.373 17.969C13.455 17.897 13.529 17.819 13.605 17.74Z"/><path d="M15.6601 17.878H15.6741C15.6831 17.9441 15.6773 18.0114 15.6571 18.075C15.6291 18.016 15.6241 17.935 15.6601 17.878Z"/><path d="M13.885 17.97C13.9103 17.9457 13.937 17.923 13.965 17.902C14.513 18.206 14.911 18.724 15.212 19.265C15.1522 19.2985 15.0976 19.3406 15.05 19.39C15.05 19.529 15.1 19.66 15.154 19.786C15.2314 20.0848 15.2178 20.3999 15.115 20.691C15.12 20.805 15.133 20.917 15.133 21.032L15.107 21.031C15.027 20.297 14.734 19.591 14.372 18.961C14.382 18.876 14.328 18.798 14.352 18.711C14.208 18.571 14.31 18.319 14.139 18.19C14.075 18.093 13.964 18.05 13.885 17.97Z"/><path d="M16.922 17.906H16.95C16.939 17.974 16.987 18.108 16.924 18.133C16.9223 18.0574 16.9216 17.9817 16.922 17.906Z"/><path d="M10.771 17.935H10.785L10.783 18.131H10.766C10.7417 18.0676 10.7435 17.9971 10.771 17.935Z"/><path d="M15.624 18.34C15.631 18.268 15.576 18.126 15.651 18.102C15.643 18.182 15.633 18.259 15.624 18.34Z"/><path d="M10.766 18.13H10.783C10.785 18.204 10.789 18.278 10.793 18.353L10.761 18.362C10.7513 18.2852 10.7529 18.2073 10.766 18.131V18.13Z"/><path d="M10.987 18.474C10.937 18.412 10.991 18.26 11.067 18.331C11.089 18.491 11.122 18.649 11.147 18.807C11.087 18.844 10.987 18.863 11.068 18.986C11.038 19.148 11.138 19.316 11.074 19.473C11.058 19.521 11.038 19.569 11.02 19.618C11.008 19.5 10.988 19.383 10.979 19.265C10.989 19.001 11.031 18.738 10.987 18.474Z"/><path d="M10.793 18.353C10.823 18.437 10.813 18.527 10.813 18.617H10.786C10.7801 18.529 10.7824 18.4406 10.793 18.353Z"/><path d="M16.887 18.582C16.896 18.506 16.904 18.428 16.917 18.354C16.92 18.44 16.927 18.53 16.922 18.618L16.89 18.612L16.887 18.582Z"/><path d="M16.868 18.933C16.868 18.815 16.868 18.697 16.888 18.582L16.89 18.612C16.893 18.717 16.906 18.827 16.885 18.932H16.868V18.933Z"/><path d="M10.786 18.617H10.813L10.814 18.7L10.813 18.872H10.786C10.7823 18.787 10.7823 18.702 10.786 18.617Z"/><path d="M16.135 19.56C16.131 19.263 16.108 18.963 16.15 18.667C16.153 18.965 16.175 19.265 16.135 19.561V19.56Z"/><path d="M17.345 19.47C17.397 19.243 17.379 18.987 17.489 18.78C17.587 18.786 17.681 18.806 17.775 18.832C17.726 18.933 17.723 19.046 17.718 19.157C17.713 19.262 17.699 19.367 17.678 19.47C17.6571 19.5325 17.6519 19.5991 17.663 19.664C17.668 19.721 17.643 19.775 17.626 19.83C17.6179 19.841 17.6099 19.852 17.602 19.863C17.556 19.866 17.513 19.879 17.487 19.919C17.447 19.976 17.372 19.991 17.33 20.046C17.228 20.388 17.262 20.766 17.09 21.088C17.02 21.1 16.968 21.046 16.91 21.02C16.814 21 16.571 21.039 16.668 20.833C16.694 20.463 16.768 20.096 16.854 19.735C16.8664 19.7106 16.8735 19.6837 16.8747 19.6563C16.8759 19.6289 16.8712 19.6015 16.861 19.576L16.873 19.504C16.9147 19.442 16.9436 19.3723 16.958 19.299C17.008 19.285 17.061 19.259 17.115 19.275C17.188 19.341 17.232 19.474 17.345 19.47Z"/><path d="M11.068 18.986C10.987 18.863 11.086 18.844 11.147 18.807C11.18 19.047 11.227 19.284 11.267 19.523C11.221 19.487 11.187 19.524 11.16 19.563C11.156 19.71 11.153 19.859 11.152 20.007C11.122 20.067 11.059 20.109 11.061 20.184C11.0486 20.1034 11.0222 20.0255 10.983 19.954C10.997 19.842 11.009 19.73 11.02 19.618C11.038 19.569 11.058 19.521 11.074 19.473C11.138 19.316 11.038 19.148 11.068 18.986Z"/><path d="M17.718 19.157C17.723 19.047 17.726 18.933 17.775 18.832C17.735 18.912 17.807 19.117 17.718 19.157Z"/><path d="M10.786 18.873H10.813V19.129L10.786 19.128C10.7821 19.043 10.7821 18.9579 10.786 18.873Z"/><path d="M15.57 19.068C15.55 19.015 15.533 18.906 15.586 18.877L15.587 19.068H15.57Z"/><path d="M16.868 18.933H16.885C16.9067 18.9946 16.906 19.0619 16.883 19.123H16.865L16.868 18.933Z"/><path d="M15.57 19.068H15.587C15.589 19.204 15.587 19.34 15.566 19.475L15.559 19.355C15.559 19.259 15.55 19.163 15.57 19.068Z"/><path d="M10.786 19.128H10.813L10.82 19.208L10.813 19.412C10.729 19.392 10.805 19.208 10.786 19.128Z"/><path d="M16.865 19.123H16.883L16.895 19.329C16.897 19.409 16.925 19.287 16.958 19.299C16.9437 19.3723 16.9148 19.442 16.873 19.504C16.8682 19.3854 16.8649 19.2667 16.863 19.148L16.865 19.123Z"/><path d="M16.816 19.704C16.82 19.518 16.852 19.334 16.862 19.148L16.872 19.504C16.8685 19.528 16.8648 19.552 16.861 19.576C16.845 19.618 16.831 19.661 16.816 19.704Z"/><path d="M10.82 19.207C10.838 19.275 10.853 19.352 10.922 19.387C10.944 19.347 10.961 19.306 10.979 19.265C10.989 19.383 11.008 19.5 11.019 19.618C11.009 19.73 10.997 19.842 10.983 19.954C10.9352 19.9519 10.8881 19.9428 10.843 19.927C10.838 19.845 10.846 19.766 10.823 19.688C10.806 19.596 10.813 19.504 10.813 19.412L10.82 19.207Z"/><path d="M15.05 19.39C15.0976 19.3406 15.1522 19.2985 15.212 19.265C15.302 19.419 15.374 19.583 15.44 19.749C15.405 19.78 15.37 19.811 15.338 19.846C15.385 20.094 15.514 20.336 15.464 20.596C15.367 20.842 15.241 21.081 15.187 21.342L15.163 21.346C15.172 21.238 15.126 21.139 15.133 21.032C15.133 20.917 15.12 20.805 15.115 20.692C15.2181 20.4007 15.2317 20.0851 15.154 19.786C15.0927 19.6625 15.0573 19.5277 15.05 19.39Z"/><path d="M15.5319 19.64C15.5609 19.568 15.4859 19.39 15.5589 19.355L15.5659 19.475C15.5619 19.53 15.5609 19.585 15.5599 19.64H15.5319Z"/><path d="M17.663 19.664C17.6516 19.5991 17.6564 19.5325 17.677 19.47C17.701 19.521 17.726 19.64 17.663 19.664Z"/><path d="M11.16 19.563C11.187 19.524 11.22 19.487 11.267 19.523C11.263 19.665 11.342 19.806 11.314 19.944C11.2915 19.9673 11.2754 19.996 11.2673 20.0274C11.2592 20.0588 11.2595 20.0917 11.268 20.123C11.2623 20.4596 11.2851 20.7962 11.336 21.129C11.366 21.294 11.351 21.469 11.409 21.629L11.416 21.648C11.393 21.676 11.372 21.706 11.348 21.733C11.272 21.723 11.185 21.666 11.127 21.743L11.105 21.566C11.099 21.446 11.097 21.328 11.092 21.209C11.117 20.866 11.054 20.526 11.061 20.184C11.059 20.109 11.121 20.066 11.151 20.007C11.153 19.859 11.156 19.71 11.161 19.563H11.16Z"/><path d="M16.816 19.704L16.861 19.576C16.8714 19.6016 16.8762 19.6291 16.875 19.6568C16.8738 19.6844 16.8666 19.7114 16.854 19.736C16.7616 20.0958 16.6994 20.4628 16.668 20.833C16.571 21.039 16.814 21.001 16.91 21.02C16.968 21.046 17.02 21.1 17.09 21.088C17.262 20.765 17.228 20.388 17.33 20.046C17.372 19.991 17.447 19.976 17.487 19.919C17.513 19.879 17.557 19.866 17.602 19.863L17.606 20.066C17.609 20.197 17.587 20.326 17.57 20.456C17.555 20.55 17.55 20.646 17.542 20.741C17.532 20.77 17.524 20.798 17.516 20.828C17.469 20.904 17.394 20.931 17.304 20.929C17.178 21.068 17.185 21.263 17.117 21.428C16.945 21.421 16.853 21.187 16.658 21.213C16.542 21.211 16.528 21.096 16.543 20.997C16.59 20.735 16.645 20.474 16.703 20.214C16.723 20.154 16.741 20.094 16.75 20.031C16.752 19.917 16.796 19.814 16.816 19.704Z"/><path d="M15.5321 19.64H15.5601C15.5621 19.73 15.5471 19.818 15.5311 19.908C15.5301 19.817 15.5281 19.729 15.5321 19.64Z"/><path d="M10.824 19.688C10.846 19.766 10.838 19.845 10.842 19.927V19.98L10.814 19.982C10.811 19.882 10.806 19.785 10.824 19.688Z"/><path d="M15.338 19.846C15.37 19.811 15.405 19.78 15.44 19.749C15.471 19.802 15.48 19.867 15.531 19.908C15.551 19.968 15.571 20.028 15.594 20.088C15.5927 20.1237 15.5917 20.1593 15.591 20.195C15.483 20.245 15.568 20.373 15.568 20.453C15.588 20.636 15.628 20.817 15.615 21.002C15.509 21.219 15.345 21.412 15.304 21.657C15.244 21.809 15.334 21.967 15.281 22.121L15.251 22.113C15.2487 22.036 15.2474 21.959 15.247 21.882C15.2591 21.8166 15.2542 21.7491 15.233 21.686C15.184 21.578 15.19 21.457 15.187 21.342C15.241 21.081 15.367 20.842 15.464 20.595C15.514 20.335 15.385 20.094 15.338 19.846Z"/><path d="M17.6021 19.863C17.61 19.852 17.618 19.841 17.6261 19.83C17.6201 19.9 17.6701 20.039 17.6061 20.066L17.6021 19.863Z"/><path d="M15.658 19.998C15.549 19.777 15.664 19.876 15.718 19.908C15.872 20.117 15.948 20.371 16.081 20.593L16.125 20.613C16.129 20.708 16.129 20.801 16.131 20.898L16.123 21.054C16.0791 21.123 16.0263 21.1858 15.966 21.241L15.95 21.434C15.9134 21.4305 15.8767 21.4275 15.84 21.425C15.894 21.375 15.946 21.317 15.927 21.237C15.925 20.809 15.73 20.415 15.657 19.998H15.658Z"/><path d="M10.8419 19.927C10.8871 19.9428 10.9342 19.9518 10.9819 19.954C11.0215 20.0255 11.0482 20.1033 11.0609 20.184C11.0539 20.526 11.1169 20.866 11.0909 21.209C11.0649 21.076 11.0769 20.926 11.0079 20.805C10.9279 20.806 10.9079 20.908 10.8509 20.952C10.8409 20.846 10.8409 20.741 10.8409 20.634V19.98L10.8419 19.927Z"/><path d="M11.268 20.123C11.2595 20.0917 11.2593 20.0588 11.2674 20.0274C11.2754 19.996 11.2915 19.9673 11.314 19.944C11.406 20.389 11.443 20.847 11.507 21.298C11.497 21.423 11.57 21.539 11.547 21.664C11.5297 21.6335 11.511 21.6038 11.491 21.575C11.463 21.591 11.436 21.61 11.409 21.629C11.351 21.469 11.366 21.294 11.336 21.129C11.2851 20.7961 11.2624 20.4596 11.268 20.123Z"/><path d="M10.814 19.982L10.842 19.98V20.293H10.814C10.8107 20.1893 10.8107 20.0856 10.814 19.982Z"/><path d="M16.691 20.146C16.7 20.1 16.683 20.031 16.75 20.031C16.7401 20.0932 16.7247 20.1545 16.704 20.214L16.691 20.146Z"/><path d="M15.5939 20.088C15.7189 20.401 15.8099 20.726 15.8819 21.054L15.8519 21.048L15.8159 21.035C15.8095 21.0011 15.8018 20.9674 15.7929 20.934C15.7475 20.6822 15.6799 20.4349 15.5909 20.195L15.5939 20.088Z"/><path d="M15.568 20.453C15.568 20.373 15.483 20.245 15.591 20.195C15.677 20.436 15.751 20.681 15.793 20.934C15.7673 20.9566 15.7429 20.9807 15.72 21.006C15.66 21.054 15.727 21.155 15.682 21.212C15.597 21.328 15.471 21.422 15.445 21.572C15.315 21.914 15.6 22.229 15.517 22.573C15.507 22.687 15.447 22.787 15.399 22.889C15.341 23.005 15.354 23.146 15.282 23.256L15.279 23.226C15.271 22.94 15.277 22.654 15.275 22.368C15.275 22.284 15.275 22.203 15.281 22.121C15.334 21.966 15.244 21.809 15.304 21.657C15.344 21.412 15.509 21.219 15.614 21.002C15.628 20.817 15.588 20.636 15.568 20.453Z"/><path d="M10.814 20.293H10.842V20.634H10.813C10.8099 20.5207 10.8103 20.4073 10.814 20.294V20.293Z"/><path d="M17.542 20.741C17.55 20.646 17.555 20.55 17.57 20.456C17.574 20.553 17.583 20.652 17.573 20.749L17.542 20.741Z"/><path d="M17.516 20.828L17.542 20.741C17.547 20.865 17.553 20.991 17.548 21.117H17.521C17.519 21.02 17.52 20.926 17.516 20.828Z"/><path d="M10.85 20.952C10.907 20.908 10.928 20.806 11.008 20.805C11.077 20.926 11.065 21.076 11.092 21.209C11.097 21.328 11.099 21.446 11.105 21.566C11.107 21.656 11.134 21.782 11.015 21.741C10.938 21.704 10.93 21.577 10.875 21.509C10.8735 21.445 10.8722 21.381 10.871 21.317C10.869 21.2 10.871 21.084 10.853 20.969L10.85 20.952Z"/><path d="M17.304 20.93C17.394 20.93 17.469 20.904 17.516 20.828C17.52 20.925 17.519 21.02 17.521 21.118L17.518 21.311C17.383 21.321 17.368 21.511 17.211 21.467C17.135 21.566 17.121 21.693 17.077 21.807C17.074 21.579 16.916 21.347 16.687 21.301C16.59 21.302 16.533 21.229 16.515 21.141C16.522 21.093 16.531 21.045 16.543 20.997C16.529 21.097 16.542 21.211 16.658 21.213C16.853 21.187 16.945 21.421 17.117 21.428C17.185 21.263 17.178 21.069 17.304 20.93Z"/><path d="M15.72 21.006C15.743 20.9807 15.7673 20.9567 15.793 20.934L15.816 21.035C15.7837 21.0264 15.7516 21.0168 15.72 21.006Z"/><path d="M10.853 20.969C10.871 21.084 10.869 21.2 10.871 21.317H10.842C10.8369 21.2009 10.8413 21.0846 10.853 20.969Z"/><path d="M15.682 21.212C15.727 21.155 15.661 21.054 15.72 21.006L15.816 21.036L15.852 21.048C15.737 21.113 15.739 21.263 15.65 21.35C15.507 21.49 15.435 21.716 15.509 21.908C15.553 22.066 15.664 22.186 15.751 22.321C15.801 22.693 15.576 23.018 15.514 23.373C15.514 23.766 15.51 24.167 15.619 24.548C15.5706 24.5378 15.5219 24.5287 15.473 24.521C15.447 24.502 15.398 24.504 15.391 24.467C15.324 24.265 15.277 24.057 15.224 23.851C15.274 23.803 15.25 23.736 15.247 23.676C15.2458 23.6402 15.2482 23.6043 15.254 23.569C15.267 23.465 15.276 23.361 15.282 23.256C15.354 23.146 15.341 23.005 15.399 22.889C15.447 22.787 15.506 22.687 15.517 22.573C15.6 22.229 15.315 21.913 15.445 21.572C15.471 21.422 15.597 21.328 15.682 21.212Z"/><path d="M15.65 21.35C15.739 21.263 15.737 21.113 15.852 21.048L15.882 21.054C15.891 21.142 15.837 21.195 15.772 21.243C15.731 21.389 15.576 21.468 15.548 21.619C15.469 21.851 15.634 22.073 15.82 22.194C15.88 22.224 15.875 22.294 15.886 22.351C15.922 22.671 15.895 22.996 15.856 23.316C15.856 23.68 15.834 24.048 15.878 24.411C15.8862 24.4738 15.8845 24.5376 15.873 24.6C15.788 24.584 15.704 24.565 15.619 24.548C15.509 24.168 15.513 23.766 15.514 23.373C15.576 23.018 15.8 22.693 15.751 22.321C15.664 22.186 15.553 22.066 15.509 21.908C15.435 21.716 15.507 21.49 15.65 21.35Z"/><path d="M15.882 21.054L15.927 21.237C15.947 21.317 15.894 21.375 15.84 21.425C15.71 21.487 15.614 21.61 15.63 21.765C15.577 21.939 15.8 22.035 15.89 22.148C15.978 22.402 15.952 22.673 15.98 22.937C16.017 23.496 16.019 24.055 16.014 24.616C15.967 24.612 15.919 24.61 15.874 24.6C15.8851 24.5376 15.8865 24.4738 15.878 24.411C15.834 24.048 15.857 23.68 15.856 23.316C15.895 22.996 15.922 22.672 15.886 22.351C15.876 22.294 15.879 22.224 15.82 22.194C15.634 22.073 15.47 21.851 15.548 21.619C15.576 21.468 15.731 21.389 15.772 21.243C15.837 21.195 15.891 21.143 15.882 21.054Z"/><path d="M15.966 21.241C16.0263 21.1859 16.0791 21.123 16.123 21.054C16.128 21.161 16.129 21.267 16.129 21.375L16.069 21.488C16.029 21.469 15.989 21.453 15.95 21.434L15.966 21.241Z"/><path d="M17.52 21.118H17.548C17.548 21.259 17.554 21.403 17.546 21.545L17.519 21.537V21.311L17.52 21.118Z"/><path d="M16.488 21.325L16.515 21.141C16.533 21.229 16.59 21.302 16.686 21.301C16.916 21.347 17.074 21.579 17.077 21.807C17.12 21.693 17.135 21.566 17.211 21.467C17.367 21.512 17.383 21.32 17.518 21.311V21.537C17.5081 21.5477 17.4981 21.5584 17.488 21.569C17.4141 21.6281 17.3545 21.7034 17.314 21.789C17.274 21.759 17.237 21.717 17.184 21.711C17.173 21.815 17.149 21.921 17.166 22.027C17.157 22.353 17.064 22.672 17.07 22.999L17.061 23.045C17.041 23.119 17.024 23.198 17 23.273C16.83 23.224 16.675 23.321 16.507 23.298C16.4506 23.2253 16.4178 23.137 16.413 23.045C16.443 23.092 16.47 23.142 16.502 23.189C16.588 23.149 16.657 23.033 16.762 23.064C16.846 23.065 16.923 23.014 17 22.984C17.062 22.736 17.061 22.479 17.091 22.226C17.1028 22.1108 17.0926 21.9944 17.061 21.883C17.004 21.965 16.951 22.051 16.885 22.128C16.772 22.162 16.655 22.215 16.535 22.185C16.473 22.165 16.409 22.18 16.347 22.192L16.354 22.17C16.464 22.05 16.67 22.146 16.801 22.047C16.985 21.92 16.999 21.632 16.847 21.477C16.764 21.363 16.608 21.375 16.488 21.325Z"/><path d="M9.703 21.172C9.883 21.259 10.023 21.417 10.159 21.562C10.1363 21.5672 10.1156 21.5787 10.0992 21.5951C10.0827 21.6116 10.0712 21.6323 10.066 21.655L10.046 21.653C9.963 21.471 9.826 21.325 9.703 21.172Z"/><path d="M16.13 21.375C16.187 21.293 16.302 21.304 16.387 21.265C16.426 21.244 16.444 21.297 16.467 21.318L16.473 21.458C16.314 21.535 16.277 21.75 16.386 21.885C16.3841 21.9517 16.374 22.0178 16.356 22.082C16.304 22.139 16.189 22.18 16.162 22.078C16.128 22.014 16.089 21.953 16.063 21.885C16.0913 21.8604 16.114 21.8301 16.1298 21.7961C16.1456 21.7621 16.154 21.7251 16.1544 21.6876C16.1549 21.6502 16.1474 21.613 16.1325 21.5786C16.1177 21.5442 16.0957 21.5133 16.068 21.488L16.13 21.375Z"/><path d="M10.842 21.316H10.871C10.871 21.365 10.874 21.461 10.875 21.509C10.8723 21.568 10.8703 21.627 10.869 21.686H10.842C10.84 21.562 10.837 21.439 10.842 21.316Z"/><path d="M16.467 21.318L16.488 21.325C16.608 21.375 16.764 21.363 16.848 21.478C16.999 21.632 16.985 21.92 16.801 22.047C16.67 22.147 16.463 22.051 16.354 22.17L16.357 22.082C16.375 22.0178 16.3851 21.9516 16.387 21.885C16.507 22.018 16.754 21.975 16.811 21.801C16.927 21.602 16.665 21.395 16.473 21.457L16.467 21.318Z"/><path d="M15.63 21.764C15.614 21.61 15.71 21.487 15.84 21.425L15.95 21.435C15.99 21.453 16.03 21.469 16.068 21.488C16.0957 21.5133 16.1177 21.5442 16.1326 21.5786C16.1475 21.613 16.155 21.6501 16.1545 21.6876C16.154 21.7251 16.1456 21.7621 16.1299 21.7961C16.1141 21.8301 16.0913 21.8604 16.063 21.885L15.985 21.943C15.834 21.988 15.695 21.893 15.63 21.764Z"/><path d="M16.473 21.457C16.665 21.395 16.927 21.602 16.811 21.801C16.754 21.976 16.507 22.018 16.386 21.885C16.277 21.75 16.314 21.535 16.473 21.457Z"/><path d="M10.875 21.509C10.93 21.577 10.938 21.704 11.015 21.741C11.134 21.782 11.107 21.656 11.105 21.566L11.127 21.744C11.126 21.839 11.127 21.937 11.124 22.034C11.0699 22.0222 11.0165 22.0075 10.964 21.99C10.914 21.947 10.902 21.879 10.874 21.822C10.8716 21.7767 10.87 21.7313 10.869 21.686C10.87 21.626 10.873 21.568 10.875 21.509Z"/><path d="M17.4871 21.569L17.5191 21.537C17.5191 21.623 17.5231 21.712 17.5191 21.8H17.4921L17.4871 21.569Z"/><path d="M10.066 21.655C10.0713 21.6323 10.0827 21.6116 10.0992 21.5952C10.1156 21.5787 10.1364 21.5672 10.159 21.562C10.362 21.754 10.516 22 10.637 22.251C10.557 22.331 10.46 22.4 10.407 22.501L10.392 22.512C10.328 22.212 10.186 21.935 10.066 21.655Z"/><path d="M11.41 21.629C11.4358 21.6098 11.4625 21.5917 11.49 21.575C11.51 21.604 11.529 21.633 11.546 21.664C11.556 21.761 11.601 21.864 11.572 21.961C11.412 22.028 11.512 22.241 11.44 22.369C11.397 22.479 11.241 22.438 11.155 22.485L11.158 22.285C11.198 22.153 11.358 22.244 11.434 22.162C11.4372 22.0881 11.4389 22.014 11.439 21.94C11.435 21.842 11.456 21.74 11.416 21.648L11.409 21.628L11.41 21.629Z"/><path d="M17.314 21.79C17.3541 21.7041 17.4132 21.6285 17.487 21.569L17.492 21.799C17.492 22.019 17.492 22.238 17.494 22.457C17.4903 22.5035 17.4887 22.5503 17.489 22.597C17.341 22.485 17.269 22.721 17.135 22.752C17.109 22.833 17.091 22.915 17.07 22.999C17.064 22.672 17.157 22.353 17.166 22.027C17.149 21.922 17.173 21.815 17.184 21.711C17.237 21.717 17.274 21.759 17.314 21.789V21.79Z"/><path d="M11.348 21.733C11.372 21.706 11.393 21.676 11.416 21.648C11.456 21.74 11.436 21.842 11.439 21.94C11.357 22.05 11.183 21.903 11.124 22.034C11.127 21.937 11.126 21.839 11.127 21.744C11.185 21.666 11.272 21.722 11.348 21.733Z"/><path d="M10.842 21.686H10.869L10.874 21.822L10.869 22.084H10.842C10.841 21.95 10.838 21.818 10.842 21.686Z"/><path d="M15.233 21.686C15.2543 21.7491 15.2591 21.8165 15.247 21.882H15.228C15.2149 21.8508 15.2086 21.8172 15.2094 21.7834C15.2103 21.7496 15.2183 21.7164 15.233 21.686Z"/><path d="M15.89 22.148C15.8 22.035 15.577 21.938 15.63 21.764C15.695 21.893 15.834 21.988 15.985 21.943C15.954 21.968 15.91 21.967 15.873 21.979C15.903 22.069 16.013 22.076 16.062 22.149C16.094 22.242 16.1 22.344 16.148 22.432C16.174 22.56 16.186 22.691 16.185 22.822C16.159 22.8105 16.1323 22.8009 16.105 22.793C16.095 22.881 16.048 22.968 16.058 23.06C16.102 23.586 16.031 24.119 16.096 24.643H16.015L16.014 24.616C16.019 24.056 16.017 23.496 15.979 22.936C15.952 22.673 15.978 22.402 15.889 22.148H15.89Z"/><path d="M17.492 21.8H17.519C17.515 22.018 17.535 22.238 17.511 22.456H17.494C17.4913 22.2373 17.4907 22.0187 17.492 21.8Z"/><path d="M10.874 21.822C10.902 21.879 10.914 21.947 10.964 21.99C11.016 22.008 11.07 22.022 11.124 22.034C11.128 22.0674 11.1327 22.1008 11.138 22.134C11.115 22.222 11.122 22.395 10.959 22.308C10.909 22.302 10.906 22.226 10.876 22.191C10.8693 22.1558 10.8669 22.1198 10.869 22.084L10.874 21.822Z"/><path d="M15.228 21.883L15.247 21.882C15.247 21.958 15.248 22.035 15.251 22.112C15.182 22.093 15.227 21.951 15.228 21.883Z"/><path d="M15.985 21.943C16.011 21.923 16.037 21.903 16.063 21.885C16.089 21.953 16.128 22.014 16.162 22.078L16.148 22.432C16.1 22.344 16.094 22.242 16.062 22.149C16.012 22.076 15.902 22.069 15.873 21.979C15.91 21.967 15.953 21.968 15.985 21.943Z"/><path d="M16.885 22.128C16.95 22.051 17.005 21.965 17.062 21.883C17.1 21.993 17.096 22.111 17.092 22.226C17.062 22.479 17.062 22.736 17 22.985C16.923 23.015 16.846 23.065 16.762 23.064C16.657 23.034 16.588 23.149 16.502 23.189C16.47 23.142 16.443 23.092 16.412 23.045C16.348 22.833 16.344 22.608 16.318 22.39C16.316 22.3227 16.3262 22.2557 16.348 22.192C16.409 22.18 16.473 22.166 16.535 22.185C16.655 22.215 16.772 22.162 16.885 22.128Z"/><path d="M11.124 22.034C11.183 21.904 11.357 22.051 11.439 21.94C11.439 22.014 11.437 22.088 11.434 22.162C11.358 22.244 11.199 22.152 11.158 22.286C11.1548 22.2349 11.1481 22.1842 11.138 22.134C11.1327 22.1008 11.128 22.0674 11.124 22.034Z"/><path d="M11.44 22.37C11.512 22.242 11.413 22.028 11.572 21.961C11.593 22.055 11.622 22.153 11.604 22.25C11.57 22.274 11.522 22.288 11.519 22.337C11.482 22.511 11.507 22.702 11.426 22.867C11.344 22.937 11.265 23.011 11.185 23.083C11.177 22.91 11.155 22.737 11.152 22.564L11.155 22.484C11.241 22.438 11.397 22.479 11.44 22.369V22.37Z"/><path d="M16.1619 22.078C16.1889 22.18 16.3039 22.139 16.3569 22.082L16.3539 22.17L16.3469 22.192C16.3255 22.2557 16.3156 22.3228 16.3179 22.39C16.2879 22.564 16.2799 22.742 16.2349 22.913C16.2178 22.8826 16.2012 22.8519 16.1849 22.821C16.186 22.6904 16.1736 22.5601 16.1479 22.432L16.1619 22.078Z"/><path d="M15.25 22.113L15.28 22.121C15.276 22.2032 15.2743 22.2856 15.275 22.368H15.248C15.243 22.283 15.244 22.1978 15.251 22.113H15.25Z"/><path d="M11.138 22.134C11.148 22.184 11.154 22.234 11.158 22.286L11.155 22.485L11.152 22.565C11.069 22.575 10.986 22.594 10.902 22.597C10.897 22.5557 10.89 22.5146 10.881 22.474C10.8663 22.3803 10.8646 22.2851 10.876 22.191C10.906 22.226 10.908 22.301 10.959 22.308C11.122 22.395 11.115 22.222 11.138 22.134Z"/><path d="M10.407 22.502C10.46 22.4 10.557 22.331 10.637 22.251C10.722 22.398 10.797 22.551 10.851 22.713C10.862 22.743 10.875 22.773 10.888 22.802C10.942 22.948 11.002 23.092 11.032 23.245C10.858 23.282 11.025 23.531 10.932 23.623C10.83 23.683 10.66 23.733 10.669 23.873L10.643 23.875C10.645 23.408 10.505 22.953 10.407 22.502Z"/><path d="M11.52 22.337C11.522 22.287 11.57 22.274 11.604 22.25C11.643 22.466 11.654 22.689 11.666 22.908C11.662 23.025 11.72 23.163 11.608 23.245C11.531 23.299 11.496 23.39 11.463 23.475C11.419 23.565 11.404 23.664 11.383 23.76C11.361 23.788 11.339 23.814 11.32 23.843C11.295 23.97 11.287 24.107 11.26 24.237L11.239 24.252C11.2215 24.1539 11.2112 24.0546 11.208 23.955C11.207 23.91 11.195 23.867 11.186 23.823C11.241 23.578 11.156 23.33 11.185 23.083L11.425 22.867C11.507 22.702 11.482 22.511 11.519 22.337H11.52Z"/><path d="M15.2481 22.368H15.2751C15.2771 22.654 15.2711 22.94 15.2791 23.226L15.2491 23.219C15.2453 22.9357 15.245 22.6513 15.2481 22.368Z"/><path d="M16.235 22.913C16.28 22.742 16.289 22.563 16.318 22.39C16.344 22.608 16.348 22.833 16.413 23.045C16.4177 23.137 16.4505 23.2253 16.507 23.298C16.675 23.321 16.831 23.224 17 23.273C17.024 23.198 17.04 23.119 17.061 23.045C17.062 23.101 17.063 23.158 17.061 23.215C17.037 23.356 17.022 23.499 17.004 23.641C16.844 23.573 16.706 23.794 16.562 23.725C16.525 23.627 16.496 23.527 16.457 23.429C16.417 23.362 16.329 23.351 16.267 23.309C16.257 23.192 16.287 23.069 16.249 22.958L16.235 22.913Z"/><path d="M17.494 22.457L17.511 22.456C17.537 22.509 17.524 22.574 17.519 22.632L17.509 22.65C17.5023 22.6323 17.4956 22.6147 17.489 22.597C17.489 22.55 17.49 22.503 17.494 22.457Z"/><path d="M10.88 22.474C10.89 22.514 10.897 22.556 10.902 22.597L10.888 22.802C10.875 22.772 10.862 22.742 10.851 22.712C10.8583 22.6324 10.8673 22.553 10.88 22.474Z"/><path d="M10.9019 22.597C10.9859 22.594 11.0689 22.575 11.1519 22.564C11.1539 22.737 11.1769 22.91 11.1849 23.083C11.1549 23.33 11.2409 23.578 11.1859 23.823L11.0939 23.764C11.1539 23.591 11.0639 23.415 11.0319 23.244C11.0019 23.092 10.9419 22.948 10.8879 22.802L10.9019 22.597Z"/><path d="M17.1351 22.752C17.2691 22.721 17.3411 22.485 17.4891 22.597L17.5091 22.65L17.5111 22.672C17.4927 22.771 17.4941 22.8726 17.5151 22.971L17.5171 22.996V23.113C17.4981 23.063 17.4861 23.011 17.4601 22.964C17.2981 23.037 17.0551 23.077 17.0701 23.311C17.0669 23.279 17.0635 23.247 17.0601 23.215C17.0618 23.1584 17.0622 23.1017 17.0611 23.045L17.0701 22.999C17.0911 22.915 17.1101 22.833 17.1351 22.752Z"/><path d="M17.519 22.632L17.545 22.621C17.547 22.744 17.555 22.869 17.546 22.992L17.517 22.996L17.515 22.971C17.515 22.87 17.522 22.771 17.511 22.672L17.51 22.65L17.519 22.632Z"/><path d="M17.515 22.97C17.4942 22.8719 17.4928 22.7706 17.511 22.672C17.521 22.772 17.516 22.87 17.515 22.971V22.97Z"/><path d="M12.4611 22.71H12.7741V22.737C12.6701 22.737 12.5661 22.739 12.4621 22.737V22.709L12.4611 22.71Z"/><path d="M11.696 23.11C11.893 22.9 12.167 22.739 12.462 22.737C12.566 22.739 12.67 22.737 12.774 22.737C12.811 22.75 12.926 22.709 12.91 22.765C12.8456 22.753 12.7792 22.7574 12.717 22.778C12.5913 22.8033 12.4728 22.8565 12.3703 22.9337C12.2679 23.0109 12.184 23.1101 12.125 23.224C12.104 23.299 12.053 23.36 12.015 23.427C11.952 23.628 11.916 23.837 11.892 24.045L11.869 24.042C11.841 23.9272 11.798 23.8166 11.741 23.713C11.641 23.65 11.458 23.633 11.49 23.476C11.533 23.401 11.581 23.328 11.608 23.245C11.72 23.163 11.662 23.025 11.666 22.908H11.693L11.696 23.11Z"/><path d="M12.717 22.778C12.7792 22.7575 12.8456 22.753 12.91 22.765C12.888 22.828 12.767 22.805 12.717 22.778Z"/><path d="M16.106 22.793C16.1333 22.8005 16.16 22.8099 16.186 22.821L16.235 22.913L16.249 22.958C16.265 23.08 16.201 23.223 16.266 23.338C16.296 23.386 16.299 23.443 16.304 23.499C16.304 23.639 16.289 23.783 16.304 23.924C16.336 24.124 16.322 24.332 16.38 24.527C16.313 24.514 16.287 24.547 16.298 24.612C16.299 24.651 16.281 24.672 16.243 24.677C16.194 24.667 16.145 24.654 16.096 24.643C16.031 24.119 16.102 23.586 16.058 23.06C16.048 22.968 16.096 22.881 16.106 22.793Z"/><path d="M16.25 22.958C16.288 23.069 16.256 23.192 16.267 23.308V23.338C16.201 23.223 16.266 23.08 16.25 22.958Z"/><path d="M17.07 23.311C17.055 23.077 17.298 23.037 17.46 22.964C17.486 23.011 17.498 23.063 17.516 23.114C17.518 23.155 17.518 23.197 17.519 23.24C17.389 23.329 17.239 23.401 17.123 23.506C17.046 23.81 17.061 24.135 17.072 24.449L17.065 24.527L17.039 24.529C17.035 24.123 17.026 23.716 17.07 23.311Z"/><path d="M17.517 22.996L17.547 22.992C17.549 23.077 17.553 23.166 17.545 23.252L17.519 23.24C17.519 23.1977 17.518 23.1553 17.516 23.113L17.517 22.996Z"/><path d="M15.021 23.217C15.054 23.235 15.087 23.257 15.067 23.299C15.0503 23.3829 15.0462 23.4689 15.055 23.554L15.052 23.584L15.022 23.592C15.019 23.466 15.015 23.342 15.022 23.217H15.021Z"/><path d="M15.249 23.219L15.279 23.226L15.282 23.256C15.2764 23.3606 15.267 23.465 15.254 23.569C15.2464 23.4525 15.2447 23.3357 15.249 23.219Z"/><path d="M17.004 23.641C17.022 23.499 17.037 23.356 17.061 23.215L17.071 23.311C17.026 23.716 17.035 24.123 17.039 24.529L17.015 24.533C16.9584 24.5305 16.9016 24.5305 16.845 24.533C16.769 24.5309 16.693 24.5309 16.617 24.533C16.565 24.241 16.566 23.936 16.459 23.655C16.382 23.63 16.319 23.587 16.304 23.499C16.299 23.443 16.295 23.386 16.266 23.337L16.267 23.308C16.329 23.351 16.417 23.362 16.457 23.429C16.496 23.527 16.525 23.627 16.562 23.725C16.706 23.794 16.845 23.573 17.004 23.641Z"/><path d="M10.933 23.623C11.025 23.531 10.858 23.283 11.033 23.245C11.065 23.415 11.153 23.591 11.094 23.765C10.986 23.732 10.894 23.799 10.871 23.905C10.873 24.014 10.975 24.085 11.072 24.111L10.988 24.138C11.0356 24.172 11.0752 24.216 11.104 24.267C11.098 24.37 11.115 24.485 11.063 24.581C10.952 24.584 10.841 24.585 10.73 24.585C10.7241 24.5538 10.7175 24.5228 10.71 24.492C10.707 24.284 10.67 24.079 10.669 23.872C10.659 23.732 10.83 23.683 10.933 23.623Z"/><path d="M11.463 23.475C11.496 23.39 11.531 23.299 11.608 23.245C11.581 23.328 11.533 23.401 11.49 23.475H11.463Z"/><path d="M17.123 23.506C17.24 23.401 17.388 23.329 17.519 23.24C17.519 23.339 17.509 23.444 17.54 23.54L17.55 23.646V23.671L17.503 23.663C17.401 23.78 17.272 23.887 17.241 24.047C17.241 24.111 17.172 24.097 17.131 24.112C17.131 24.227 17.103 24.339 17.071 24.449C17.061 24.135 17.046 23.809 17.123 23.506Z"/><path d="M17.519 23.24L17.545 23.253C17.551 23.308 17.551 23.363 17.549 23.419L17.54 23.541C17.508 23.444 17.52 23.339 17.519 23.24Z"/><path d="M15.055 23.554C15.0463 23.4689 15.0503 23.3829 15.067 23.299C15.101 23.462 15.147 23.623 15.197 23.782C15.257 23.814 15.176 23.652 15.247 23.676C15.25 23.736 15.273 23.803 15.224 23.851C15.277 24.057 15.324 24.265 15.391 24.467C15.398 24.504 15.447 24.502 15.473 24.521C15.393 24.511 15.416 24.601 15.435 24.647L15.466 24.732L15.476 24.811C15.348 24.778 15.188 24.828 15.077 24.751C15.062 24.352 15.103 23.95 15.055 23.554Z"/><path d="M17.549 23.42C17.612 23.444 17.564 23.578 17.576 23.647L17.549 23.646C17.5465 23.611 17.5435 23.576 17.54 23.541L17.549 23.42Z"/><path d="M11.463 23.475H11.49C11.458 23.633 11.642 23.65 11.741 23.713C11.797 23.817 11.841 23.927 11.869 24.042C11.8675 24.0882 11.8635 24.1342 11.857 24.18C11.8458 24.2572 11.8384 24.335 11.835 24.413C11.769 24.413 11.701 24.413 11.645 24.45C11.614 24.538 11.615 24.631 11.61 24.724L11.608 24.744C11.586 24.801 11.571 24.862 11.544 24.918C11.4538 24.9378 11.3622 24.9502 11.27 24.955C11.2529 24.8288 11.2409 24.7021 11.234 24.575C11.266 24.602 11.286 24.646 11.326 24.663C11.399 24.643 11.472 24.62 11.546 24.603C11.5943 24.4692 11.6253 24.3297 11.638 24.188C11.515 24.204 11.358 24.136 11.259 24.238C11.287 24.107 11.295 23.97 11.32 23.843C11.212 24.039 11.542 24.17 11.61 23.989C11.711 23.858 11.51 23.684 11.382 23.76C11.404 23.664 11.419 23.565 11.462 23.475H11.463Z"/><path d="M16.304 23.5C16.319 23.587 16.382 23.63 16.459 23.655C16.566 23.935 16.565 24.241 16.617 24.533L16.584 24.532C16.545 24.413 16.534 24.288 16.494 24.17C16.346 24.227 16.402 23.987 16.304 23.924C16.289 23.783 16.304 23.641 16.304 23.5Z"/><path d="M15.055 23.554C15.103 23.95 15.062 24.352 15.077 24.751L15.05 24.756L15.047 24.7V24.644L15.045 24.591C15.046 24.481 15.049 24.375 15.047 24.267V24.158C15.052 23.966 15.039 23.775 15.052 23.584L15.055 23.554Z"/><path d="M17.5029 23.663L17.5489 23.671C17.5489 23.759 17.5389 23.853 17.5659 23.94C17.5829 24.012 17.6069 24.082 17.6069 24.157C17.6139 24.28 17.6269 24.402 17.6319 24.525C17.4419 24.528 17.2539 24.528 17.0649 24.527L17.0719 24.449C17.1029 24.339 17.1299 24.227 17.1299 24.112C17.1719 24.097 17.2409 24.111 17.2399 24.047C17.2719 23.887 17.4009 23.78 17.5029 23.663Z"/><path d="M17.55 23.646L17.576 23.647C17.578 23.743 17.585 23.844 17.566 23.94C17.539 23.853 17.55 23.759 17.549 23.67L17.55 23.646Z"/><path d="M11.382 23.76C11.51 23.684 11.712 23.858 11.611 23.99C11.542 24.17 11.211 24.04 11.321 23.843C11.339 23.813 11.361 23.788 11.382 23.76Z"/><path d="M10.87 23.905C10.894 23.799 10.986 23.732 11.094 23.765L11.186 23.823C11.196 23.867 11.206 23.91 11.208 23.955C11.171 24.0137 11.1251 24.0663 11.072 24.111C10.975 24.086 10.872 24.014 10.871 23.905H10.87Z"/><path d="M17.888 24.303C17.991 24.121 18.075 23.92 18.204 23.757C18.156 24.023 18.029 24.275 17.957 24.537C17.927 24.62 17.913 24.711 17.857 24.781C17.7817 24.7854 17.7063 24.7857 17.631 24.782C17.637 24.7527 17.65 24.7252 17.669 24.702C17.692 24.666 17.712 24.628 17.73 24.59C17.778 24.492 17.844 24.403 17.888 24.303Z"/><path d="M16.304 23.924C16.402 23.987 16.346 24.227 16.494 24.17C16.534 24.288 16.545 24.413 16.584 24.532C16.516 24.5302 16.448 24.5285 16.38 24.527C16.322 24.332 16.336 24.123 16.304 23.924Z"/><path d="M11.072 24.111C11.1252 24.0664 11.171 24.0137 11.208 23.955C11.212 24.055 11.22 24.154 11.238 24.252C11.238 24.359 11.238 24.467 11.234 24.575C11.198 24.729 11.207 24.888 11.238 25.042C11.2118 25.0097 11.1823 24.9803 11.15 24.954C11.08 24.731 11.176 24.484 11.104 24.267C11.0754 24.2157 11.0358 24.1713 10.988 24.137C11.0164 24.1297 11.0445 24.121 11.072 24.111Z"/><path d="M14.193 24.014C14.289 24.066 14.335 24.177 14.416 24.249C14.48 24.32 14.536 24.397 14.594 24.473C14.424 24.549 14.387 24.388 14.317 24.291C14.275 24.199 14.215 24.113 14.193 24.014Z"/><path d="M18.752 24.14L18.772 24.128C18.726 24.2656 18.6671 24.3985 18.596 24.525L18.4 24.527C18.484 24.373 18.626 24.26 18.752 24.14Z"/><path d="M14.416 24.25C14.63 24.305 14.831 24.143 15.047 24.158V24.211C14.9471 24.2191 14.8503 24.2499 14.764 24.301C14.708 24.336 14.627 24.386 14.653 24.465C14.761 24.565 14.906 24.61 15.046 24.645L15.047 24.7C14.777 24.65 14.501 24.592 14.254 24.467C14.244 24.405 14.257 24.321 14.317 24.291C14.387 24.388 14.423 24.549 14.594 24.473C14.536 24.397 14.48 24.321 14.416 24.25Z"/><path d="M17.6071 24.157C17.6621 24.153 17.6071 24.248 17.6641 24.244C17.7391 24.264 17.8141 24.278 17.8881 24.304C17.8441 24.403 17.7781 24.492 17.7301 24.59C17.7361 24.517 17.6801 24.537 17.6331 24.548V24.525C17.6281 24.402 17.6141 24.28 17.6071 24.157Z"/><path d="M11.26 24.237C11.358 24.137 11.515 24.204 11.638 24.187C11.6252 24.329 11.5947 24.4687 11.547 24.603C11.472 24.62 11.399 24.643 11.326 24.663C11.286 24.646 11.266 24.602 11.234 24.575C11.237 24.467 11.239 24.359 11.239 24.252L11.259 24.237H11.26Z"/><path d="M11.835 24.413C11.838 24.336 11.845 24.255 11.857 24.18C11.86 24.276 11.876 24.378 11.856 24.475H11.839L11.835 24.413Z"/><path d="M14.764 24.301C14.8502 24.2499 14.947 24.2191 15.047 24.211V24.267C14.957 24.274 14.867 24.319 14.85 24.414C14.873 24.509 14.956 24.567 15.045 24.591L15.046 24.644C14.906 24.61 14.761 24.566 14.653 24.465C14.627 24.385 14.708 24.336 14.764 24.301Z"/><path d="M11.104 24.267C11.176 24.484 11.081 24.731 11.15 24.954C11.154 25.084 11.152 25.216 11.158 25.347C11.1013 25.3421 11.0441 25.3445 10.988 25.354C10.9216 25.3408 10.8549 25.3291 10.788 25.319C10.7622 25.2482 10.7392 25.1765 10.719 25.104C10.721 25.014 10.727 24.928 10.728 24.841L10.73 24.585C10.841 24.585 10.952 24.585 11.063 24.581C11.115 24.485 11.098 24.371 11.104 24.267Z"/><path d="M14.85 24.414C14.867 24.319 14.957 24.274 15.047 24.267C15.049 24.375 15.047 24.482 15.045 24.591C14.956 24.567 14.873 24.509 14.85 24.414Z"/><path d="M10.4441 24.356C10.4911 24.359 10.4781 24.431 10.4841 24.466L10.4701 24.583C10.3731 24.601 10.4641 24.416 10.4441 24.356Z"/><path d="M11.645 24.45C11.701 24.412 11.769 24.413 11.835 24.413C11.835 24.429 11.838 24.459 11.839 24.475C11.836 24.53 11.835 24.585 11.833 24.641C11.753 24.643 11.661 24.656 11.61 24.724C11.615 24.631 11.614 24.538 11.645 24.45Z"/><path d="M10.4701 24.583C10.4741 24.543 10.4791 24.505 10.4851 24.466C10.5751 24.674 10.6281 24.896 10.7191 25.104C10.7391 25.176 10.7631 25.248 10.7891 25.319L10.8111 25.381L10.8341 25.443L10.8451 25.473C10.8075 25.4847 10.7691 25.4931 10.7301 25.498C10.6741 25.498 10.6171 25.496 10.5601 25.492L10.5581 25.465L10.5551 25.414C10.5437 25.277 10.5294 25.1403 10.5121 25.004C10.5001 24.864 10.4681 24.723 10.4701 24.583Z"/><path d="M11.84 24.475H11.856C11.8745 24.5373 11.8745 24.6036 11.856 24.666L11.839 24.664L11.833 24.641C11.835 24.585 11.836 24.53 11.839 24.475H11.84Z"/><path d="M10.71 24.492L10.73 24.585L10.728 24.841H10.699C10.6931 24.7242 10.6965 24.6072 10.709 24.491L10.71 24.492Z"/><path d="M15.435 24.647C15.415 24.6 15.393 24.511 15.473 24.521L15.512 24.577C15.7022 24.6286 15.8991 24.6509 16.096 24.643C16.146 24.653 16.194 24.666 16.243 24.677L16.241 24.7C15.969 24.73 15.705 24.651 15.435 24.647Z"/><path d="M15.473 24.521C15.522 24.529 15.571 24.538 15.619 24.548C15.704 24.565 15.789 24.584 15.873 24.6C15.919 24.61 15.967 24.612 16.013 24.616L16.015 24.643C15.8452 24.6432 15.6761 24.621 15.512 24.577L15.473 24.521Z"/><path d="M16.298 24.612C16.287 24.547 16.313 24.514 16.38 24.527L16.584 24.532L16.617 24.533C16.53 24.596 16.417 24.57 16.32 24.606L16.298 24.612Z"/><path d="M16.6169 24.533C16.6919 24.531 16.7689 24.531 16.8449 24.533C16.6819 24.608 16.4969 24.623 16.3199 24.606C16.4169 24.57 16.5299 24.596 16.6169 24.533Z"/><path d="M16.845 24.533C16.901 24.53 16.958 24.531 17.015 24.533C16.905 24.619 16.76 24.591 16.636 24.636L16.337 24.647L16.329 24.672L16.32 24.699L16.24 24.7L16.243 24.677C16.281 24.672 16.299 24.651 16.298 24.612L16.32 24.606C16.497 24.622 16.682 24.608 16.845 24.533Z"/><path d="M17.015 24.533L17.039 24.529L17.065 24.527C17.255 24.528 17.443 24.528 17.632 24.525L17.633 24.548L17.527 24.564L17.327 24.562C17.103 24.542 16.897 24.657 16.671 24.648L16.636 24.636C16.76 24.591 16.906 24.619 17.015 24.533Z"/><path d="M17.6331 24.548C17.6801 24.537 17.7361 24.517 17.7301 24.59C17.712 24.6285 17.6916 24.6659 17.6691 24.702L17.6571 24.643C16.9327 24.7547 16.1981 24.7849 15.4671 24.733C15.4555 24.7047 15.4448 24.676 15.4351 24.647C15.7051 24.651 15.9691 24.73 16.2411 24.7L16.3211 24.699C16.5201 24.703 16.7201 24.702 16.9161 24.662C17.1249 24.6858 17.3362 24.6519 17.5271 24.564L17.6331 24.548Z"/><path d="M12.5251 24.562L12.5491 24.555C12.5201 24.842 12.4451 25.123 12.3991 25.408L12.2271 25.404C12.2471 25.331 12.2771 25.262 12.3001 25.191C12.3691 24.979 12.4661 24.777 12.5251 24.562Z"/><path d="M16.6709 24.648C16.8959 24.657 17.1029 24.541 17.3279 24.562C17.1989 24.627 17.0549 24.638 16.9159 24.662C16.7193 24.6963 16.5194 24.7087 16.3199 24.699L16.3289 24.672C16.4399 24.657 16.5629 24.689 16.6709 24.648Z"/><path d="M17.328 24.562L17.528 24.564C17.3368 24.6521 17.1251 24.686 16.916 24.662C17.056 24.638 17.199 24.627 17.328 24.562Z"/><path d="M11.238 25.042C11.2027 24.8885 11.2013 24.7291 11.234 24.575C11.242 24.702 11.252 24.828 11.27 24.955C11.3622 24.9502 11.4538 24.9379 11.544 24.918C11.571 24.862 11.586 24.801 11.608 24.743C11.629 24.863 11.626 24.983 11.635 25.103V25.153C11.504 25.183 11.373 25.214 11.242 25.242L11.238 25.042Z"/><path d="M11.61 24.724C11.661 24.656 11.753 24.643 11.833 24.641L11.839 24.664C11.839 24.761 11.822 24.867 11.857 24.963L11.863 25.07C11.823 25.038 11.781 24.998 11.726 25.01C11.692 25.038 11.666 25.072 11.635 25.103C11.625 24.983 11.629 24.863 11.608 24.743L11.61 24.724Z"/><path d="M16.337 24.647L16.637 24.637L16.671 24.647C16.563 24.689 16.441 24.657 16.329 24.672L16.337 24.647Z"/><path d="M11.84 24.664L11.857 24.666C11.8695 24.7646 11.8695 24.8644 11.857 24.963C11.822 24.867 11.839 24.761 11.839 24.663L11.84 24.664Z"/><path d="M12.895 24.905L12.918 24.895C12.914 24.994 12.856 25.081 12.853 25.18H12.713C12.761 25.08 12.828 24.992 12.895 24.905Z"/><path d="M9.92798 24.927C10.031 24.973 10.071 25.09 10.154 25.161C10.201 25.201 10.305 25.304 10.18 25.311C10.104 25.268 10.07 25.186 10.025 25.116C9.99198 25.054 9.94098 24.999 9.92798 24.927Z"/><path d="M11.15 24.954C11.1823 24.9802 11.2118 25.0097 11.238 25.042L11.242 25.242L11.238 25.382L11.181 25.38C11.1735 25.3689 11.1658 25.3579 11.158 25.347C11.152 25.216 11.154 25.084 11.15 24.954Z"/><path d="M11.8571 24.963C11.9231 24.933 11.8821 25.059 11.8941 25.097L11.8921 25.151L11.8841 25.217C11.8681 25.169 11.8661 25.119 11.8631 25.07C11.8615 25.0343 11.8595 24.9986 11.8571 24.963Z"/><path d="M10.512 25.003C10.529 25.139 10.544 25.277 10.555 25.413C10.46 25.412 10.355 25.32 10.392 25.218C10.432 25.179 10.509 25.164 10.5 25.096L10.512 25.003Z"/><path d="M11.635 25.103C11.665 25.073 11.692 25.038 11.725 25.01C11.781 24.998 11.823 25.038 11.863 25.07C11.866 25.119 11.868 25.17 11.884 25.217C11.896 25.261 11.911 25.304 11.92 25.348C11.845 25.396 11.75 25.4 11.664 25.411C11.651 25.325 11.641 25.2387 11.634 25.152V25.103H11.635Z"/><path d="M10.1541 25.16C10.2711 25.15 10.3831 25.104 10.5001 25.096C10.5101 25.164 10.4311 25.179 10.3921 25.218C10.3551 25.32 10.4601 25.412 10.5551 25.414L10.5581 25.464C10.4261 25.432 10.2801 25.413 10.1801 25.31C10.3051 25.304 10.2011 25.2 10.1541 25.16Z"/><path d="M11.8939 25.097C12.0279 25.125 12.1799 25.119 12.2999 25.191C12.2779 25.262 12.2459 25.331 12.2269 25.404C11.9389 25.464 11.6399 25.49 11.3459 25.487C11.4519 25.465 11.5579 25.439 11.6659 25.437C11.8059 25.417 11.9839 25.431 12.0879 25.317C12.1209 25.2 11.9739 25.172 11.8919 25.151L11.8939 25.097Z"/><path d="M9.87305 25.206C9.93105 25.189 9.97705 25.151 10.0251 25.116C10.0691 25.186 10.1041 25.268 10.1801 25.31C10.2801 25.413 10.4261 25.432 10.5581 25.465L10.5601 25.492C10.3831 25.516 10.2171 25.442 10.0461 25.409C9.9506 25.3997 9.86143 25.3572 9.79405 25.289C9.76805 25.233 9.83305 25.219 9.87305 25.206Z"/><path d="M11.242 25.242C11.373 25.214 11.504 25.182 11.635 25.152C11.642 25.238 11.651 25.325 11.665 25.411L11.667 25.436C11.558 25.439 11.452 25.465 11.346 25.487C11.3114 25.4932 11.2762 25.4952 11.241 25.493L11.239 25.466V25.439L11.238 25.411V25.381L11.242 25.241V25.242Z"/><path d="M11.8919 25.151C11.9739 25.172 12.1209 25.201 12.0879 25.317C11.9839 25.431 11.8059 25.417 11.6669 25.437L11.6639 25.411C11.7509 25.401 11.8449 25.396 11.9199 25.348C11.9109 25.304 11.8959 25.261 11.8839 25.217L11.8919 25.151Z"/><path d="M10.788 25.319C10.855 25.329 10.921 25.341 10.988 25.354C11.0163 25.3722 11.0482 25.3839 11.0816 25.3884C11.1149 25.3929 11.1489 25.39 11.181 25.38L11.238 25.381V25.411C11.094 25.409 10.953 25.393 10.811 25.381L10.788 25.319Z"/><path d="M10.988 25.354C11.0442 25.3445 11.1013 25.3421 11.158 25.347L11.181 25.38C11.1489 25.39 11.115 25.3929 11.0816 25.3884C11.0483 25.3839 11.0163 25.3722 10.988 25.354Z"/><path d="M10.8101 25.38C10.9531 25.393 11.0941 25.409 11.2381 25.41V25.439C11.1081 25.457 10.9561 25.397 10.8341 25.443L10.8111 25.381L10.8101 25.38Z"/><path d="M10.834 25.443C10.956 25.397 11.108 25.457 11.238 25.439L11.239 25.466C11.108 25.466 10.976 25.463 10.845 25.472L10.834 25.442V25.443Z"/><path d="M10.845 25.472C10.976 25.463 11.108 25.466 11.239 25.466L11.241 25.493C11.069 25.493 10.896 25.49 10.726 25.523L10.73 25.498C10.769 25.4928 10.8075 25.4841 10.845 25.472Z"/></svg>