<svg viewBox="0 0 1000 1000" xmlns="http://www.w3.org/2000/svg" fill="currentColor"><path fill-rule="evenodd" clip-rule="evenodd" d="M489.549 229.5H442.049V250.3H489.549V272.9H442.049V293.7H489.549V316.2H442.049V337H489.549V360.4H442.049V381.2H489.549V403.8H442.049V424.6H489.549V447.2H442.049V468H489.549V490.6H442.049V511.4H489.549V533.9H442.049V554.7H489.549V563.504C447.568 566.488 438.963 586.576 437.429 594.248C435.769 602.546 429.586 645.281 426.226 669.759C422.866 694.238 438.259 702.536 500.493 702.536C562.728 702.536 576.436 694.818 573.93 669.759C571.424 644.701 564.387 611.259 560.653 597.152L560.584 596.892C557.114 583.775 552.364 565.821 510.449 563.404V534.6H556.349V513.8H510.449V491.2H556.349V470.4H510.449V447.8H556.349V427H510.449V404.4H556.349V383.6H510.449V360.3H556.349V339.5H510.449V316.9H556.349V296.1H510.449V273.5H556.349V252.7H510.449V230.1H556.349V209.3H510.449V187.5H746.349C754.549 187.5 761.349 194.3 761.349 202.5V797.5C761.449 805.8 754.649 812.5 746.449 812.5H253.649C245.449 812.5 238.649 805.7 238.649 797.5V202.5C238.649 194.3 245.449 187.5 253.649 187.5H442.049V206.9H489.549V229.5ZM534.608 608.74C534.608 622.742 519.114 634.093 500 634.093C480.886 634.093 465.392 622.742 465.392 608.74C465.392 594.738 480.886 583.386 500 583.386C519.114 583.386 534.608 594.738 534.608 608.74Z"/></svg>