<svg viewBox="0 0 16 16" xmlns="http://www.w3.org/2000/svg" fill="currentColor"><path d="M8.63148 3.33241C7.56578 3.33241 6.88 4.11111 6.88 4.11111C6.88 4.11111 6.04 3 4.65451 3C3.14971 3 1.9405 4.24654 1.9405 5.77008C1.9405 6.1579 2.02111 6.54571 2.15547 6.87812C1.45681 7.29363 1 8.06925 1 8.95568C1 10.2853 2.04798 11.3657 3.33781 11.3657C3.49904 11.3657 3.66027 11.338 3.8215 11.3103C4.17083 12.3075 5.11133 13 6.18618 13C7.23417 13 8.12092 12.3629 8.49712 11.4488C8.79271 11.5873 9.11516 11.6704 9.46449 11.6704C10.2975 11.6704 11.023 11.1994 11.3992 10.5069L11.3992 10.5069C11.5873 10.5346 11.7754 10.5623 11.9904 10.5623C13.6564 10.5623 15 9.17729 15 7.45983C15 5.74238 13.6564 4.35734 11.9904 4.35734C11.5605 4.35734 11.1574 4.46814 10.7812 4.63435C10.3512 3.85873 9.54511 3.33241 8.63148 3.33241Z"/></svg>