<svg viewBox="0 0 16 16" xmlns="http://www.w3.org/2000/svg" fill="currentColor"><path d="M11.2533 1.01334L11.84 1.22667L13.92 6.18667L13.7067 6.77334L10.4 8.16L9.81333 7.94667L9.65333 7.52L6.08 9.01334L5.54667 8.8L5.38667 8.42667L2.82667 9.49334L2.24 9.22667L1.49333 7.57334L1.76 6.98667L4.26667 5.92L4.10667 5.49334L4.32 4.96L7.89333 3.41334L7.73333 2.98667L8 2.4L11.2533 1.01334ZM2.50667 7.62667L2.82667 8.48L5.06667 7.57334L4.69333 6.72L2.50667 7.62667ZM5.22667 5.49334L6.34667 7.94667L9.33333 6.66667L8.26666 4.26667L5.22667 5.49334ZM8.8 2.98667L10.6667 7.09334L12.96 6.08L11.2 1.97334L8.74667 2.98667H8.8ZM8.48 9.12L11.52 13.9733H10.3467L8.48 10.9867V14.9867H7.46667V9.81334L5.6 13.9733H4.48L6.18667 10.08L8.48 9.12Z"/></svg>