<svg viewBox="0 0 16 16" xmlns="http://www.w3.org/2000/svg" fill="currentColor"><path fill-rule="evenodd" clip-rule="evenodd" d="M4.65451 3.5C3.43688 3.5 2.4405 4.51153 2.4405 5.77008C2.4405 6.09163 2.50796 6.41595 2.61904 6.69075L2.77982 7.08854L2.41105 7.30786C1.86577 7.63215 1.5 8.24344 1.5 8.95568C1.5 10.0236 2.33835 10.8657 3.33781 10.8657C3.44913 10.8657 3.568 10.8465 3.73683 10.8175L4.15358 10.7459L4.29338 11.1449C4.57455 11.9476 5.32993 12.5 6.18618 12.5C7.02359 12.5 7.7326 11.9926 8.03475 11.2585L8.23435 10.7735L8.70927 10.996C8.94666 11.1072 9.19704 11.1704 9.46449 11.1704C10.1032 11.1704 10.6658 10.8096 10.9599 10.2683L11.1266 9.96138L11.4721 10.0123C11.6629 10.0404 11.8169 10.0623 11.9904 10.0623C13.3661 10.0623 14.5 8.91558 14.5 7.45983C14.5 6.00409 13.3661 4.85734 11.9904 4.85734C11.6479 4.85734 11.3144 4.94538 10.9832 5.0917L10.5654 5.27632L10.3439 4.87676C9.9938 4.24521 9.34695 3.83241 8.63148 3.83241C8.22243 3.83241 7.87743 3.982 7.62533 4.14309C7.50038 4.22293 7.40318 4.30256 7.33868 4.36074C7.30661 4.38966 7.28315 4.4128 7.26894 4.42733C7.26184 4.43458 7.2571 4.43964 7.25477 4.44214C7.2543 4.44266 7.25393 4.44306 7.25366 4.44336L6.85048 4.90116L6.48255 4.41448M6.48244 4.41433L6.48236 4.41423L6.47933 4.4104C6.47565 4.40579 6.46895 4.39751 6.4593 4.3861C6.43997 4.36323 6.40903 4.32799 6.3671 4.28448C6.28281 4.19703 6.15654 4.07867 5.99335 3.96038C5.66485 3.72224 5.20942 3.5 4.65451 3.5M1.4405 5.77008C1.4405 3.98155 2.86255 2.5 4.65451 2.5C5.48509 2.5 6.14241 2.83332 6.58028 3.15073C6.70777 3.24316 6.81859 3.33557 6.91191 3.42046C6.9653 3.38122 7.02368 3.34081 7.08688 3.30043C7.44409 3.07217 7.97483 2.83241 8.63148 2.83241C9.58785 2.83241 10.4359 3.30586 10.9788 4.02364C11.2929 3.92184 11.6309 3.85734 11.9904 3.85734C13.9468 3.85734 15.5 5.48068 15.5 7.45983C15.5 9.43899 13.9468 11.0623 11.9904 11.0623C11.8694 11.0623 11.7561 11.0549 11.6507 11.0442C11.1598 11.7233 10.3655 12.1704 9.46449 12.1704C9.20989 12.1704 8.96807 12.1344 8.73988 12.0709C8.21267 12.9296 7.2716 13.5 6.18618 13.5C5.03611 13.5 4.01873 12.8417 3.51383 11.858C3.4564 11.8628 3.3974 11.8657 3.33781 11.8657C1.75762 11.8657 0.5 10.547 0.5 8.95568C0.5 8.04213 0.906455 7.2181 1.56365 6.68333C1.48478 6.39288 1.4405 6.08213 1.4405 5.77008Z"/></svg>