<svg viewBox="0 0 16 16" xmlns="http://www.w3.org/2000/svg" fill="currentColor"><path d="M6.82342 13.1673C6.90861 13.4235 7.05767 13.637 7.27063 13.8078C7.48358 13.9359 7.71783 14 7.97338 14C8.27152 14 8.52706 13.9359 8.74002 13.8078C8.95297 13.637 9.10204 13.4235 9.18722 13.1673L9.69831 11.5018C9.86868 11.0747 10.1029 10.7117 10.4011 10.4128C10.6992 10.1139 11.0612 9.879 11.4871 9.70818L13.1482 9.19573C13.3611 9.11032 13.5315 9.00356 13.6593 8.87544C13.787 8.74733 13.8722 8.59786 13.9148 8.42705C14 8.21352 14.0213 8.02135 13.9787 7.85053C13.9361 7.63701 13.8509 7.44484 13.7232 7.27402C13.5954 7.0605 13.3824 6.91103 13.0843 6.82562L11.4871 6.24911C11.0612 6.121 10.6779 5.90747 10.3372 5.60854C10.039 5.30961 9.82609 4.94662 9.69831 4.51957L9.12334 2.85409C9.03815 2.59786 8.88909 2.40569 8.67613 2.27758C8.50577 2.14947 8.31411 2.06406 8.10115 2.02135C7.93079 1.97865 7.73913 2 7.52618 2.08541C7.35581 2.12811 7.20674 2.23488 7.07897 2.40569C6.9512 2.53381 6.84472 2.68327 6.75954 2.85409L6.24845 4.51957C6.12067 4.94662 5.88642 5.30961 5.5457 5.60854C5.24756 5.90747 4.90683 6.121 4.52351 6.24911L2.86247 6.82562C2.64951 6.86833 2.47915 6.97509 2.35138 7.14591C2.2236 7.27402 2.11713 7.44484 2.03194 7.65836C1.98935 7.82918 1.98935 8.02135 2.03194 8.23488C2.07453 8.40569 2.15972 8.59786 2.28749 8.81139C2.41526 8.98221 2.60692 9.11032 2.86247 9.19573L4.52351 9.70818C5.03461 9.879 5.48181 10.1993 5.86513 10.669C6.03549 10.9253 6.18456 11.2028 6.31233 11.5018L6.82342 13.1673Z"/></svg>