<svg width="16" height="16" viewBox="0 0 16 16" xmlns="http://www.w3.org/2000/svg" fill="currentColor"><path d="M15.4998 12.3414H6.49671C6.22995 12.3414 5.99654 12.5748 5.99654 12.8416V13.8419C5.99654 14.1087 6.22995 14.3421 6.49671 14.3421H15.4998C15.7666 14.3421 16 14.1087 16 13.8419V12.8416C16 12.5748 15.7666 12.3414 15.4998 12.3414ZM7.79716 6.27266L1.32826 1.1042C1.12819 0.937478 0.828082 0.970823 0.661358 1.20424L0.0944947 2.00451C-0.0722297 2.23793 -0.00553996 2.53803 0.194529 2.70476L4.79612 6.37269C4.83754 6.40375 4.87115 6.44403 4.8943 6.49033C4.91745 6.53663 4.9295 6.58769 4.9295 6.63945C4.9295 6.69122 4.91745 6.74227 4.8943 6.78857C4.87115 6.83488 4.83754 6.87515 4.79612 6.90621L0.194529 10.5741C-0.00553996 10.7409 -0.0722297 11.0743 0.0944947 11.2744L0.661358 12.1414C0.828082 12.3748 1.12819 12.4081 1.32826 12.2414L7.79716 7.07294C8.06392 6.87287 8.06392 6.47273 7.79716 6.27266Z"/></svg>