<svg viewBox="0 0 16 16" xmlns="http://www.w3.org/2000/svg" fill="currentColor"><path d="M5.30566 2.26346C5.43565 1.88159 5.77519 1.5 6.28909 1.5H10.0511C10.4157 1.5 10.6695 1.73605 10.7847 1.97985C10.8992 2.22198 10.912 2.52897 10.7727 2.80181L10.771 2.80514L8.85199 6.49506H10.795C11.1505 6.49506 11.3681 6.75216 11.4486 6.96491C11.5328 7.18743 11.5217 7.47053 11.3527 7.7073L6.89595 14.1913C6.79794 14.34 6.64523 14.4548 6.45309 14.4895C6.26649 14.5233 6.09633 14.472 5.97043 14.3931C5.72195 14.2374 5.57036 13.9323 5.62615 13.6046L5.62725 13.5981L6.38154 9.49309H4.31246C3.99275 9.49309 3.75563 9.30292 3.63051 9.09288C3.50567 8.88333 3.46617 8.62164 3.53044 8.3699L3.53248 8.36192L5.30202 2.27416L5.30566 2.26346ZM7.41532 9.40037L6.84607 12.4985L10.2852 7.49506H8.4145C8.08876 7.49506 7.87175 7.28043 7.77536 7.08627C7.68077 6.89572 7.64921 6.62788 7.78269 6.38383L9.80251 2.5H6.30166C6.29169 2.50908 6.27181 2.53268 6.25526 2.57742L4.53574 8.49309H6.73543C7.00215 8.49309 7.20326 8.64683 7.31177 8.81078C7.41871 8.97234 7.46739 9.18495 7.41532 9.40037Z"/></svg>