<svg viewBox="0 0 16 16" xmlns="http://www.w3.org/2000/svg" fill="currentColor"><path d="M7.97958 2.50635C7.98729 2.50828 7.99505 2.51003 8.00284 2.51159C8.1439 2.53988 8.26619 2.59491 8.37562 2.6772C8.38937 2.68754 8.40364 2.69716 8.41838 2.70603C8.51998 2.76715 8.59778 2.85826 8.64884 3.01184L9.22242 4.67327C9.3729 5.17057 9.62587 5.60338 9.98315 5.96162C9.99099 5.96948 9.99909 5.97708 10.0074 5.9844C10.3974 6.32649 10.8392 6.57426 11.3297 6.72385L12.9145 7.29592C12.9251 7.29974 12.9358 7.30319 12.9466 7.30629C13.1542 7.36576 13.2466 7.45132 13.2941 7.53077C13.3029 7.5455 13.3125 7.55976 13.3228 7.57351C13.405 7.68339 13.46 7.80635 13.4884 7.94834C13.4899 7.9561 13.4916 7.96382 13.4936 7.9715C13.504 8.01347 13.5086 8.09599 13.4504 8.24178C13.4421 8.26272 13.4351 8.2842 13.4297 8.30608C13.4096 8.38656 13.371 8.45646 13.3052 8.52236C13.2388 8.58898 13.1361 8.65966 12.9799 8.7244L11.3397 9.23041C11.3266 9.23444 11.3137 9.23902 11.301 9.24412C10.8177 9.43796 10.3971 9.70877 10.047 10.0597C9.69703 10.4107 9.42708 10.8323 9.23391 11.3165C9.22885 11.3292 9.22432 11.3421 9.22031 11.3551L8.7111 13.0145C8.66008 13.1652 8.57656 13.29 8.45397 13.3955C8.33632 13.4591 8.18177 13.5 7.97338 13.5C7.81802 13.5 7.6822 13.465 7.55727 13.396C7.43436 13.2904 7.35065 13.1655 7.29955 13.0145L6.79033 11.3551C6.78514 11.3382 6.77905 11.3215 6.7721 11.3053C6.63301 10.9799 6.46966 10.6752 6.2815 10.3922C6.27248 10.3786 6.26281 10.3655 6.25252 10.3529C5.8171 9.81932 5.29375 9.43829 4.68205 9.23384L3.01589 8.71981C2.84921 8.66334 2.7556 8.59364 2.70119 8.52871C2.60252 8.36005 2.54674 8.22643 2.51991 8.12491C2.49441 7.99077 2.4958 7.88779 2.51063 7.80898C2.57339 7.6614 2.64132 7.56324 2.7054 7.49899C2.7221 7.48225 2.73759 7.46434 2.75176 7.4454C2.8043 7.37515 2.86615 7.33484 2.96078 7.31586C2.98304 7.3114 3.00496 7.30543 3.02641 7.29798L4.68484 6.72238C5.13889 6.57014 5.54088 6.31803 5.88799 5.97333C6.29092 5.61595 6.57324 5.17722 6.72694 4.66465L7.22449 3.0433C7.28348 2.93273 7.35322 2.83877 7.43299 2.75878C7.4497 2.74203 7.46519 2.72412 7.47935 2.70518C7.55357 2.60597 7.61136 2.57953 7.64775 2.57041C7.66971 2.5649 7.69128 2.55791 7.7123 2.54948C7.8573 2.49132 7.93873 2.49611 7.97958 2.50635ZM8.2104 1.53334C7.9251 1.46502 7.63828 1.50698 7.3697 1.60973C7.09379 1.68782 6.87205 1.85819 6.70059 2.07743C6.54388 2.23979 6.41464 2.4253 6.31209 2.63096C6.29982 2.65556 6.2896 2.68113 6.28154 2.70741L5.77045 4.37289L5.76943 4.37625C5.66906 4.71171 5.48732 4.9946 5.21595 5.23269C5.20761 5.24001 5.19951 5.2476 5.19167 5.25546C4.94589 5.5019 4.67132 5.67252 4.36502 5.7749L2.72741 6.34324C2.42386 6.4122 2.16611 6.5727 1.9729 6.81789C1.79851 7.00056 1.66667 7.22459 1.56753 7.47309C1.55918 7.49404 1.55225 7.51552 1.5468 7.5374C1.48263 7.79476 1.48791 8.06349 1.5416 8.33268C1.54315 8.34044 1.54488 8.34816 1.5468 8.35584C1.60509 8.58964 1.71494 8.82833 1.85844 9.06813C1.86726 9.08286 1.87682 9.09713 1.8871 9.11088C2.09016 9.38234 2.37735 9.56078 2.70397 9.66995L4.37028 10.1842C4.77233 10.3197 5.13646 10.573 5.46234 10.9664C5.6049 11.1835 5.73171 11.4193 5.84231 11.6745L6.34543 13.3139L6.34896 13.325C6.46487 13.6737 6.67058 13.9675 6.95777 14.1979C6.97526 14.2119 6.99367 14.2247 7.01288 14.2363C7.30593 14.4126 7.62971 14.5 7.97338 14.5C8.34412 14.5 8.69274 14.4198 8.99777 14.2363C9.01698 14.2247 9.03539 14.2119 9.05287 14.1979C9.34006 13.9675 9.54578 13.6737 9.66169 13.325L10.1701 11.6687C10.3169 11.3071 10.5129 11.0087 10.7551 10.7659C10.9972 10.5231 11.2946 10.3267 11.6549 10.1797L13.2956 9.67351C13.3087 9.66947 13.3216 9.6649 13.3343 9.6598C13.5939 9.55567 13.8267 9.41564 14.0133 9.22853C14.1949 9.04644 14.3233 8.82892 14.3911 8.58173C14.4932 8.3131 14.5347 8.02664 14.4668 7.74184C14.4109 7.46915 14.3013 7.21828 14.1383 6.99448C13.9326 6.66538 13.612 6.46014 13.2392 6.34998L11.6569 5.77881C11.6484 5.77574 11.6398 5.77291 11.6312 5.7703C11.2804 5.66479 10.9643 5.49055 10.6797 5.24379C10.4491 5.00884 10.2811 4.72293 10.1773 4.37625C10.1753 4.36959 10.1732 4.36298 10.1709 4.35641L9.59682 2.6934C9.48008 2.34422 9.26753 2.0574 8.95639 1.86294C8.73313 1.69953 8.48273 1.58951 8.2104 1.53334Z"/></svg>