<?xml version="1.0" encoding="UTF-8"?><svg id="Layer_1" xmlns="http://www.w3.org/2000/svg" viewBox="0 0 16 13.21" fill="currentColor"><path d="M2.33,9.06c.49,1.06,1.34,2.18,2.78,2.66.13.4.4.72.69.96l.05.04.06.03c1.3.59,2.8.6,4.11.02l.11-.05.05-.04c.27-.23.52-.48.67-.78.03-.06.04-.13.06-.19,1.33-.45,2.16-1.44,2.66-2.42.66-1.29.84-2.75.6-4.16l1.36-1.69c.7-.86.61-2.12-.19-2.88-.86-.83-2.24-.73-2.99.2l-1.03,1.14c-.69-.57-1.55-.88-2.45-.88h-1.75c-.93,0-1.83.34-2.52.94l-.95-1.19C2.91-.17,1.52-.27.66.56-.14,1.33-.22,2.58.47,3.45l1.35,1.68c-.22,1.33-.07,2.7.5,3.93M8.32,5.18c-.11-.02-.22-.03-.33-.03-.1,0-.2.01-.3.03-.2-1.25-1.05-2.26-2.2-2.7.13-.09.27-.16.42-.23l.72-.23c.16-.03.33-.05.5-.05h1.75c.08,0,.16.02.24.02l1.38.49c-1.14.44-1.98,1.46-2.18,2.7ZM5.81,6.9h0s-.69,3.79-.69,3.79c-.92-.42-1.54-1.19-1.93-2.03-.5-1.07-.63-2.28-.42-3.45l1.92-1.99c1.13.2,2,1.13,2.09,2.3-.48.31-.84.8-.97,1.39ZM10.01,11.48c-.06.13-.18.27-.39.44-1.04.46-2.22.46-3.26,0-.34-.3-.42-.5-.38-.72l.75-4.11c.13-.59.66-1.01,1.26-1.01s1.13.42,1.26,1.01l.81,3.97c.03.17.01.3-.05.42ZM12.73,8.87c-.39.75-.97,1.42-1.79,1.81l-.77-3.77h0c-.13-.58-.47-1.06-.94-1.37.09-1.17.95-2.11,2.09-2.31l1.92,1.99c.23,1.25.07,2.54-.5,3.66Z" fill-rule="evenodd"/><path d="M11.62,5.94c-.52,0-.94.42-.94.94s.42.94.94.94.94-.42.94-.94-.42-.94-.94-.94Z" fill-rule="evenodd"/><circle cx="4.38" cy="6.88" r=".94"/><path d="M8.86,7.94h-1.72c-.4,0-.61.49-.32.77l.86.86c.18.18.47.18.64,0l.86-.86c.29-.29.08-.77-.32-.77Z" fill-rule="evenodd"/></svg>